#N canvas 13 31 1061 616 10;
#N canvas 0 22 450 300 show 0;
#X obj 41 39 inlet;
#X obj 186 36 inlet;
#X obj 41 124 outlet;
#X msg 186 76 set;
#X obj 41 59 list prepend set;
#X obj 41 83 list trim;
#X connect 0 0 4 0;
#X connect 1 0 3 0;
#X connect 3 0 2 0;
#X connect 4 0 5 0;
#X connect 5 0 2 0;
#X restore 464 276 pd show;
#X msg 464 298 0;
#X floatatom 464 103 5 0 0 0 - - -;
#X obj 464 203 g_hradio octave;
#X text 621 205 "g_hradio octave";
#X text 622 237 "g_hradio three 3";
#X msg 464 144 octave \$1;
#X obj 464 233 g_hradio three 3;
#X floatatom 550 104 5 0 0 0 - - -;
#X msg 550 145 three \$1;
#X floatatom 665 145 5 0 0 0 - - -;
#X text 664 118 Non-matching messages are passed along.;
#X msg 665 165 symbol junk;
#N canvas 165 187 582 570 REFERENCE 0;
#X text 23 168 Inlet 0:;
#X text 24 31 Name:g_hradio;
#X text 26 263;
#X text 24 107 Argument 0: <tag>.;
#X text 23 134 Argument 1: <size (max and default: 8)>.;
#X text 25 234 Outlet 0: Non matching messages are passed along.;
#X text 24 369 See also:;
#X text 24 434 Tags:;
#X text 23 299 Description: sends messages tagged with the first argument.
;
#X text 24 66 Summary: tagged horizontal radio button GUI.;
#X coords 0 -1 1 1 450 450 1 10 10;
#X restore -82 -26 pd REFERENCE;
#X connect 0 0 1 0;
#X connect 2 0 6 0;
#X connect 3 0 7 0;
#X connect 6 0 3 0;
#X connect 7 0 0 0;
#X connect 8 0 9 0;
#X connect 9 0 3 0;
#X connect 10 0 3 0;
#X connect 12 0 3 0;
