#N canvas 267 57 993 599 10;
#X obj 548 245 g_hsl4 slider 0 127;
#X text 697 266 "g_hsl4 slider 0 127";
#X obj 548 193 list prepend slider;
#X obj 548 216 list trim;
#X floatatom 548 146 5 0 0 0 - - -;
#X floatatom 596 146 5 0 0 0 - - -;
#X floatatom 644 145 5 0 0 0 - - -;
#X floatatom 692 145 5 0 0 0 - - -;
#N canvas 0 22 450 300 pak4 0;
#X obj 143 51 inlet;
#X obj 91 51 inlet;
#X obj 141 72 t b f;
#X obj 191 51 inlet;
#X obj 189 72 t b f;
#X obj 238 50 inlet;
#X obj 236 71 t b f;
#X obj 148 222 outlet;
#X obj 148 179 pack 0 0 0 0;
#X connect 0 0 2 0;
#X connect 1 0 8 0;
#X connect 2 0 8 0;
#X connect 2 1 8 1;
#X connect 3 0 4 0;
#X connect 4 0 8 0;
#X connect 4 1 8 2;
#X connect 5 0 6 0;
#X connect 6 0 8 0;
#X connect 6 1 8 3;
#X connect 8 0 7 0;
#X restore 548 170 pd pak4 -------------;
#N canvas 0 22 450 300 show 0;
#X obj 168 156 list prepend set;
#X obj 168 185 list trim;
#X obj 168 215 outlet;
#X obj 168 124 inlet;
#X connect 0 0 1 0;
#X connect 1 0 2 0;
#X connect 3 0 0 0;
#X restore 548 340 pd show;
#X obj 709 334 g_hsl4 xxx 0 1;
#X text 861 364 "g_hsl4 xxx 0 1";
#N canvas 0 22 450 300 show 0;
#X obj 168 156 list prepend set;
#X obj 168 185 list trim;
#X obj 168 215 outlet;
#X obj 168 124 inlet;
#X connect 0 0 1 0;
#X connect 1 0 2 0;
#X connect 3 0 0 0;
#X restore 709 420 pd show;
#X msg 709 448;
#X msg 548 368;
#N canvas 165 187 582 570 REFERENCE 0;
#X text 23 213 Inlet 0:;
#X text 24 107 Argument 0: <tag>.;
#X text 23 262 Outlet 0: Non matching messages are passed along.;
#X text 24 434 Tags:;
#X text 23 134 Argument 1: <min>.;
#X text 23 160 Argument 2: <max>.;
#X text 24 31 Name:g_hsl4;
#X text 24 66 Summary: four tagged horizontal slider GUI.;
#X text 24 369 See also: g_hsl;
#X text 21 319 Description: sends and shows 4-element lists tagged
with the first argument. All sliders have the same range.;
#X coords 0 -1 1 1 450 450 1 10 10;
#X restore 23 41 pd REFERENCE;
#X connect 0 0 9 0;
#X connect 0 0 10 0;
#X connect 2 0 3 0;
#X connect 3 0 0 0;
#X connect 4 0 8 0;
#X connect 5 0 8 1;
#X connect 6 0 8 2;
#X connect 7 0 8 3;
#X connect 8 0 2 0;
#X connect 9 0 14 0;
#X connect 10 0 12 0;
#X connect 12 0 13 0;
