#N canvas 137 32 874 553 10;
#X text 472 282 "g_nbx A";
#X obj 544 306 g_nbx D;
#X obj 544 336 g_nbx S;
#X obj 544 366 g_nbx R;
#X obj 544 276 g_nbx A;
#X text 472 316 "g_nbx D";
#N canvas 0 22 450 300 show 0;
#X obj 41 39 inlet;
#X obj 186 36 inlet;
#X obj 41 124 outlet;
#X msg 186 76 set;
#X obj 41 59 list prepend set;
#X obj 41 83 list trim;
#X connect 0 0 4 0;
#X connect 1 0 3 0;
#X connect 3 0 2 0;
#X connect 4 0 5 0;
#X connect 5 0 2 0;
#X restore 544 396 pd show;
#X msg 544 214 S \$1;
#X floatatom 544 195 5 0 0 0 - - -;
#X msg 600 214 unused \$1;
#X floatatom 600 195 5 0 0 0 - - -;
#X msg 544 418;
#X text 470 374 "g_nbx R";
#X text 471 345 "g_nbx S";
#N canvas 165 187 582 570 REFERENCE 0;
#X text 22 164 Inlet 0:;
#X text 24 107 Argument 0: <tag>.;
#X text 22 213 Outlet 0: Non matching messages are passed along.;
#X text 21 392 Tags:;
#X text 20 270 Description: sends messages tagged with the first argument.
;
#X text 24 31 Name:g_nbx;
#X text 24 66 Summary: tagged number box GUI.;
#X text 23 320 See also:;
#X coords 0 -1 1 1 450 450 1 10 10;
#X restore -32 24 pd REFERENCE;
#X connect 1 0 2 0;
#X connect 2 0 3 0;
#X connect 3 0 6 0;
#X connect 4 0 1 0;
#X connect 6 0 11 0;
#X connect 7 0 4 0;
#X connect 8 0 7 0;
#X connect 9 0 4 0;
#X connect 10 0 9 0;
