#N canvas 158 29 1037 535 10;
#N canvas 0 22 450 300 show 0;
#X obj 41 39 inlet;
#X obj 186 36 inlet;
#X obj 41 124 outlet;
#X msg 186 76 set;
#X obj 41 59 list prepend set;
#X obj 41 83 list trim;
#X connect 0 0 4 0;
#X connect 1 0 3 0;
#X connect 3 0 2 0;
#X connect 4 0 5 0;
#X connect 5 0 2 0;
#X restore 479 321 pd show;
#X floatatom 479 153 5 0 0 0 - - -;
#X msg 479 194 nhsl \$1;
#X obj 479 246 g_nhsl gain 0 1;
#X floatatom 547 153 5 0 0 0 - - -;
#X msg 547 194 gain \$1;
#X obj 547 172 / 100;
#X floatatom 617 153 5 0 0 0 - - -;
#X msg 617 194 abc \$1;
#X text 632 227 "g_nhsl nhsl 0 127";
#X text 632 246 "g_nhsl gain 0 1";
#X obj 479 216 g_nhsl nhsl 0 127;
#X msg 479 343;
#N canvas 302 152 582 570 REFERENCE 0;
#X text 25 207 Inlet 0:;
#X text 24 107 Argument 0: <tag>.;
#X text 23 262 Outlet 0: Non matching messages are passed along.;
#X text 24 434 Tags:;
#X text 21 319 Description: sends messages tagged with the first argument.
;
#X text 23 134 Argument 1: <min>.;
#X text 23 160 Argument 2: <max>.;
#X text 24 31 Name:g_nhsl;
#X text 24 66 Summary: tagged horizontal slider GUI with number box.
;
#X text 21 372 See also: g_hsl4 \, g_hsl;
#X coords 0 -1 1 1 450 450 1 10 10;
#X restore -42 14 pd REFERENCE;
#X connect 0 0 12 0;
#X connect 1 0 2 0;
#X connect 2 0 11 0;
#X connect 3 0 0 0;
#X connect 4 0 6 0;
#X connect 5 0 11 0;
#X connect 6 0 5 0;
#X connect 7 0 8 0;
#X connect 8 0 11 0;
#X connect 11 0 3 0;
