#N canvas 153 22 1193 624 10;
#X obj 531 271 g_showimage some.jpg 200 100;
#X obj 531 226 tgl 15 0 empty empty show/hide 17 7 1 10 -262144 -1
-1 0 1;
#X msg 724 157 pos \$1 \$2;
#X floatatom 724 111 5 0 0 0 - - -;
#X floatatom 770 110 5 0 0 0 - - -;
#N canvas 0 22 450 300 pack 0;
#X obj 110 108 inlet;
#X obj 153 107 inlet;
#X obj 153 133 t b a;
#X obj 110 168 pack 0 0;
#X obj 110 194 outlet;
#X connect 0 0 3 0;
#X connect 1 0 2 0;
#X connect 2 0 3 0;
#X connect 2 1 3 1;
#X connect 3 0 4 0;
#X restore 724 133 pd pack;
#X text 806 157 set default position;
#X floatatom 740 181 5 0 0 0 - - -;
#X floatatom 786 180 5 0 0 0 - - -;
#N canvas 0 22 450 300 pack 0;
#X obj 110 108 inlet;
#X obj 153 107 inlet;
#X obj 153 133 t b a;
#X obj 110 168 pack 0 0;
#X obj 110 194 outlet;
#X connect 0 0 3 0;
#X connect 1 0 2 0;
#X connect 2 0 3 0;
#X connect 2 1 3 1;
#X connect 3 0 4 0;
#X restore 740 203 pd pack;
#X msg 740 227 move \$1 \$2;
#X text 822 227 set default position and show;
#X obj 745 270 g_tgl show;
#X msg 828 276 show \$1;
#X text 893 277 show and hide (like 1st inlet;
#X text 529 315 As default the image is hidden!;
#X text 527 343 When specifiying the filename \, you should use a patch
relative to the location of [g_showimage].;
#X obj 530 455 g_showimage ../images/myimage.jpg 200 100;
#X text 526 391 For example if you have g_showimage.pd in a directory
"SCENE_DIR/rj" and your images in "SCENE_DIR/img" you should use this:
;
#X text 530 498 rj_image currently ignores anything you [declare] :(
;
#N canvas 165 128 582 570 REFERENCE 1;
#X text 26 200 Inlet 0:;
#X text 25 431 Tags:;
#X text 25 248 Inlet 1:;
#X text 24 107 Argument 0: <filename>.;
#X text 24 129 Argument 1: <position x>.;
#X text 24 151 Argument 2: <position y>.;
#X text 24 31 Name:g_showimage;
#X text 24 66 Summary: show an image on the touchscreen.;
#X text 24 325 Description: show an image on the touchscreen.;
#X text 24 373 See also: g_showtext;
#X coords 0 -1 1 1 450 450 1 10 10;
#X restore 7 60 pd REFERENCE;
#X connect 1 0 0 0;
#X connect 2 0 0 1;
#X connect 3 0 5 0;
#X connect 4 0 5 1;
#X connect 5 0 2 0;
#X connect 7 0 9 0;
#X connect 8 0 9 1;
#X connect 9 0 10 0;
#X connect 10 0 0 1;
#X connect 12 0 0 1;
