#N canvas 87 32 1079 611 10;
#X obj 472 435 tgl 15 0 empty empty show/hide 17 7 1 10 -262144 -1
-1 0 1;
#X msg 658 236 pos \$1 \$2;
#X floatatom 658 190 5 0 0 0 - - -;
#X floatatom 704 189 5 0 0 0 - - -;
#N canvas 0 22 450 300 pack 0;
#X obj 110 108 inlet;
#X obj 153 107 inlet;
#X obj 153 133 t b a;
#X obj 110 168 pack 0 0;
#X obj 110 194 outlet;
#X connect 0 0 3 0;
#X connect 1 0 2 0;
#X connect 2 0 3 0;
#X connect 2 1 3 1;
#X connect 3 0 4 0;
#X restore 658 212 pd pack;
#X text 740 236 set default position;
#X floatatom 674 260 5 0 0 0 - - -;
#X floatatom 720 259 5 0 0 0 - - -;
#N canvas 0 22 450 300 pack 0;
#X obj 110 108 inlet;
#X obj 153 107 inlet;
#X obj 153 133 t b a;
#X obj 110 168 pack 0 0;
#X obj 110 194 outlet;
#X connect 0 0 3 0;
#X connect 1 0 2 0;
#X connect 2 0 3 0;
#X connect 2 1 3 1;
#X connect 3 0 4 0;
#X restore 674 282 pd pack;
#X msg 674 306 move \$1 \$2;
#X text 756 306 set default position and show;
#X obj 679 349 g_tgl show;
#X msg 762 355 show \$1;
#X text 827 356 show and hide (like 1st inlet;
#X obj 472 479 g_showtext sometext 200 100;
#X msg 689 456 text any list will be converted to 1 symbol;
#X msg 681 433 text \$1;
#X symbolatom 681 416 10 0 0 0 - - -;
#X obj 679 383 g_nbx size;
#X text 762 386 text size;
#N canvas 227 172 582 570 REFERENCE 0;
#X text 26 200 Inlet 0:;
#X text 25 431 Tags:;
#X text 24 31 Name:g_showtext;
#X text 24 66 Summary: show a list as text on the touchscreen.;
#X text 25 248 Inlet 1:;
#X text 24 373 See also: g_showimage;
#X text 24 107 Argument 0: <filename>.;
#X text 24 129 Argument 1: <position x>.;
#X text 24 151 Argument 2: <position y>.;
#X text 24 325 Description: show a list as text on the touchscreen.
convenience wrapper around [rj_image].;
#X coords 0 -1 1 1 450 450 1 10 10;
#X restore -3 50 pd REFERENCE;
#X connect 0 0 14 0;
#X connect 1 0 14 1;
#X connect 2 0 4 0;
#X connect 3 0 4 1;
#X connect 4 0 1 0;
#X connect 6 0 8 0;
#X connect 7 0 8 1;
#X connect 8 0 9 0;
#X connect 9 0 14 1;
#X connect 11 0 18 0;
#X connect 15 0 14 1;
#X connect 16 0 14 1;
#X connect 17 0 16 0;
#X connect 18 0 14 1;
