#N canvas 67 22 1100 580 10;
#N canvas 0 22 450 300 show 0;
#X obj 41 39 inlet;
#X obj 186 36 inlet;
#X obj 41 124 outlet;
#X msg 186 76 set;
#X obj 41 59 list prepend set;
#X obj 41 83 list trim;
#X connect 0 0 4 0;
#X connect 1 0 3 0;
#X connect 3 0 2 0;
#X connect 4 0 5 0;
#X connect 5 0 2 0;
#X restore 503 341 pd show;
#X text 649 303 "g_symbol aux1";
#X msg 503 274 aux1 \$1;
#X obj 503 298 g_symbol aux1;
#X symbolatom 503 242 10 0 0 0 - - -;
#X msg 503 363;
#N canvas 645 188 582 570 REFERENCE 0;
#X text 22 166 Inlet 0:;
#X text 24 107 Argument 0: <tag>.;
#X text 23 237 Outlet 0: Non matching messages are passed along.;
#X text 24 434 Tags:;
#X text 21 319 Description: sends messages tagged with the first argument.
;
#X text 24 369 See also: g_nbx;
#X text 24 31 Name:g_symbol;
#X text 25 66 Summary: tagged symbol GUI.;
#X coords 0 -1 1 1 450 450 1 10 10;
#X restore -42 48 pd REFERENCE;
#X connect 0 0 5 0;
#X connect 2 0 3 0;
#X connect 3 0 0 0;
#X connect 4 0 2 0;
