#N canvas 198 45 1124 547 10;
#N canvas 0 22 450 300 show 0;
#X obj 41 39 inlet;
#X obj 186 36 inlet;
#X obj 41 124 outlet;
#X msg 186 76 set;
#X obj 41 59 list prepend set;
#X obj 41 83 list trim;
#X connect 0 0 4 0;
#X connect 1 0 3 0;
#X connect 3 0 2 0;
#X connect 4 0 5 0;
#X connect 5 0 2 0;
#X restore 508 360 pd show;
#X obj 508 238 g_tgl sine;
#X text 591 243 "g_tgl sine";
#X text 596 273 "g_tgl saw";
#X text 597 301 "g_tgl square";
#X obj 508 268 g_tgl saw;
#X obj 508 297 g_tgl square;
#X obj 508 327 g_tgl tri;
#X text 601 331 "g_tgl tri";
#X obj 508 166 tgl 15 0 empty empty empty 17 7 0 10 -262144 -1 -1 0
1;
#X msg 508 185 square \$1;
#X msg 602 185 passthrough;
#X msg 508 382;
#N canvas 165 187 582 570 REFERENCE 0;
#X text 22 166 Inlet 0:;
#X text 24 107 Argument 0: <tag>.;
#X text 23 237 Outlet 0: Non matching messages are passed along.;
#X text 24 434 Tags:;
#X text 21 319 Description: sends messages tagged with the first argument.
;
#X text 24 31 Name:g_tgl;
#X text 24 66 Summary: tagged toggle GUI.;
#X text 24 369 See also: g_nbx;
#X coords 0 -1 1 1 450 450 1 10 10;
#X restore -52 4 pd REFERENCE;
#X connect 0 0 12 0;
#X connect 1 0 5 0;
#X connect 5 0 6 0;
#X connect 6 0 7 0;
#X connect 7 0 0 0;
#X connect 9 0 10 0;
#X connect 10 0 1 0;
#X connect 11 0 1 0;
