#N canvas 378 22 892 641 10;
#X obj 570 404 tgl 15 0 empty empty empty 17 7 0 10 -262144 -1 -1 0
1;
#X obj 570 427 m_accel_status;
#X obj 570 456 tgl 15 0 empty empty empty 17 7 0 10 -262144 -1 -1 0
1;
#N canvas 88 22 602 658 REFERENCE 0;
#X text 114 171 Inlet 0: 0/1 to switch off or on. Default is on. Switch
it off to save some CPU cycles.;
#X text 122 529 Tags: mapping;
#X text 114 121 Name: m_accel_status;
#X text 114 141 Summary: detect accelerometer (de)activity;
#X text 114 299 Description: On iPod \, iPhone \, ... the accelerometer
sensor can switch itself off during sleep. m_accel_status will report
this with a 0 \, and will send a 1 if the sensor is switched on again.
;
#X text 114 247 Outlet 0: 0 when the sensor is off \, 1 when the sensor
is on.;
#X coords 0 -1 1 1 450 450 1 100 100;
#X restore 61 75 pd REFERENCE;
#X connect 0 0 1 0;
#X connect 1 0 2 0;
