#N canvas 256 22 848 545 10;
#X obj 580 362 m_accel_magnitude;
#X obj 580 340 tgl 15 0 empty empty empty 17 7 0 10 -262144 -1 -1 0
1;
#X floatatom 580 390 5 0 0 0 - - -;
#N canvas 5 22 602 658 REFERENCE 0;
#X text 114 121 Name: m_accel_magnitude;
#X text 114 141 Summary: calulate acceleration magnitude;
#X text 114 171 Inlet 0: 0/1 to switch off or on. Default is on. Switch
it off to save some CPU cycles.;
#X text 114 299 Description: m_accel_magnitude watches the force sensor's
output and calculates the magnitude of the forces applied in all directions.
;
#X text 122 529 Tags:;
#X text 114 247 Outlet 0: magnitude of the resultant force.;
#X coords 0 -1 1 1 450 450 1 100 100;
#X restore 31 45 pd REFERENCE;
#X connect 0 0 2 0;
#X connect 1 0 0 0;
