#N canvas 176 30 1104 546 10;
#X floatatom 525 206 5 0 0 0 - - -;
#X floatatom 525 440 5 0 0 0 - - -;
#X floatatom 965 275 5 0 0 0 - - -;
#X floatatom 965 319 5 0 0 0 - - -;
#X obj 968 253 hsl 128 15 0 127 0 0 empty empty empty -2 -8 0 10 -262144
-1 -1 0 1;
#X floatatom 1082 276 5 0 0 0 - - -;
#X floatatom 548 234 5 0 0 1 in_low_border - -;
#X floatatom 571 295 5 0 0 1 in_high_border - -;
#X floatatom 595 320 5 0 0 1 out_low_border - -;
#X floatatom 618 348 5 0 0 1 out_high_border - -;
#X floatatom 965 405 5 0 0 0 - - -;
#X floatatom 965 445 5 0 0 0 - - -;
#X text 487 484 Actually low values also may be higher than high values:
;
#X floatatom 662 373 5 0 0 1 curve_exponent - -;
#X msg 685 394 dB;
#X text 725 396 send "dB" to use dB scale;
#X obj 968 336 hsl 128 15 0 1 0 0 empty empty 0-1 20 8 1 10 -262144
-1 -1 0 1;
#X obj 968 468 hsl 128 15 0 100 0 0 empty empty 0-100 20 8 1 10 -262144
-1 -1 0 1;
#X obj 968 373 hsl 128 15 0 100 0 0 empty empty 0-100 20 8 1 10 -262144
-1 -1 0 1;
#N canvas 381 198 613 435 visual-example 0;
#X floatatom 111 114 5 0 0 0 - - -;
#X floatatom 127 136 5 0 0 0 - - -;
#X floatatom 187 115 5 0 0 0 - - -;
#X floatatom 201 138 5 0 0 0 - - -;
#X floatatom 55 219 5 0 0 0 - - -;
#X floatatom 276 113 5 0 0 0 - - -;
#N canvas 0 22 450 300 (subpatch) 0;
#X array \$0-map 100 float 2;
#X coords 0 1 99 -1 200 140 1;
#X restore 272 182 graph;
#X msg 275 132 dB;
#X obj 55 290 tabwrite \$0-map;
#N canvas 0 22 450 300 count-to-100 0;
#X obj 171 145 until;
#X msg 171 88 100;
#X obj 171 173 f 0;
#X obj 202 174 + 1;
#X obj 214 144 0;
#X obj 171 116 t a b;
#X obj 170 198 outlet;
#X obj 171 61 inlet;
#X connect 0 0 2 0;
#X connect 1 0 5 0;
#X connect 2 0 3 0;
#X connect 2 0 6 0;
#X connect 3 0 2 1;
#X connect 4 0 2 1;
#X connect 5 0 0 0;
#X connect 5 1 4 0;
#X connect 7 0 1 0;
#X restore 55 70 pd count-to-100;
#X obj 55 49 bng 15 250 50 0 empty empty empty 17 7 0 10 -262144 -1
-1;
#X obj 55 100 t a a;
#X msg 267 79 0.5;
#X msg 303 79 1;
#X msg 335 79 2;
#X msg 372 79 4;
#X obj 55 195 m_scale 0 100 -1 1 dB;
#X connect 0 0 16 1;
#X connect 1 0 16 2;
#X connect 2 0 16 3;
#X connect 3 0 16 4;
#X connect 4 0 8 0;
#X connect 5 0 16 5;
#X connect 7 0 16 5;
#X connect 9 0 11 0;
#X connect 10 0 9 0;
#X connect 11 0 16 0;
#X connect 11 1 8 1;
#X connect 12 0 5 0;
#X connect 13 0 5 0;
#X connect 14 0 5 0;
#X connect 15 0 5 0;
#X connect 16 0 4 0;
#X restore 957 161 pd visual-example;
#X msg 1126 275 dB;
#X obj 525 389 m_scale -10 10 0 100;
#X obj 965 298 m_scale 0 127 0 1 dB;
#X obj 965 424 m_scale 100 0 0 100 1;
#X msg 558 259 0 127 0 1;
#X text 630 260 or send a list here with all four values.;
#N canvas 36 22 598 671 REFERENCE 0;
#X text 114 121 Name: m_scale;
#X text 114 141 Summary: scale input range to output range with linear
or exponential interpolation.;
#X text 112 250 Argument 3: out_high;
#X text 112 230 Argument 2: out_low;
#X text 112 210 Argument 1: in_high;
#X text 112 190 Argument 0: in_low;
#X text 112 280 Inlet 0: input value;
#X text 112 300 Inlet 1: in low border \, or send a list here with
all four values;
#X text 112 330 Inlet 2: in high border;
#X text 112 350 Inlet 3: out low border;
#X text 112 370 Inlet 4: out high border;
#X text 112 390 Inlet 5: curve exponent \, or send dB to use dB scale.
;
#X text 112 418 Outlet 0: scaled value;
#X text 115 452 Description: scale input range to output range with
linear or exponential interpolation.;
#X text 122 529 Tags:;
#X coords 0 -1 1 1 450 450 1 100 100;
#X restore 15 58 pd REFERENCE;
#X connect 0 0 21 0;
#X connect 2 0 22 0;
#X connect 3 0 16 0;
#X connect 4 0 2 0;
#X connect 5 0 22 5;
#X connect 6 0 21 1;
#X connect 7 0 21 2;
#X connect 8 0 21 3;
#X connect 9 0 21 4;
#X connect 10 0 23 0;
#X connect 11 0 17 0;
#X connect 13 0 21 5;
#X connect 14 0 21 5;
#X connect 18 0 10 0;
#X connect 20 0 22 5;
#X connect 21 0 1 0;
#X connect 22 0 3 0;
#X connect 23 0 11 0;
#X connect 24 0 21 1;
