#N canvas 4 22 1276 756 10;
#X floatatom 582 147 5 0 320 0 - - -;
#X floatatom 717 217 5 0 0 2 xdiv - -;
#X obj 585 128 hsl 128 15 0 319 0 0 empty empty empty -2 -8 0 10 -262144
-1 -1 0 1;
#X obj 582 528 hradio 15 1 0 5 empty empty empty 0 -8 0 10 -262144
-1 -1 0;
#X msg 515 488 number \$1;
#X obj 649 428 vradio 15 1 0 6 empty empty empty 0 -8 0 10 -262144
-1 -1 0;
#X obj 582 326 m_touch2grid mygrid 5 6;
#X floatatom 804 186 5 0 0 2 ydiv - -;
#X msg 659 402 number \$1;
#X msg 804 237 ydiv \$1;
#X msg 717 264 xdiv \$1;
#X floatatom 649 305 5 0 320 0 - - -;
#X obj 649 170 vsl 15 128 319 0 0 0 empty empty empty 0 -9 0 10 -262144
-1 -1 0 1;
#X obj 730 239 s \$0-xdiv;
#X obj 816 207 s \$0-ydiv;
#X obj 515 467 r \$0-xdiv;
#X obj 659 381 r \$0-ydiv;
#X floatatom 592 358 5 0 0 0 - - -;
#X floatatom 661 358 5 0 0 0 - - -;
#X obj 918 391 r #touch;
#X obj 918 412 route down;
#X obj 918 440 list split 1;
#X obj 952 480 unpack 0 0;
#X obj 918 548 pack 0 0 0;
#X text 920 583 make something with it;
#X text 912 359 Here's how to use it with RjDj \;;
#X msg 805 283 div 3 4;
#X text 805 264 both:;
#X floatatom 1093 526 5 0 0 1 index - -;
#X floatatom 753 343 5 0 0 1 index - -;
#X text 967 265 0 1 2 3;
#X text 966 283 4 5 6 7;
#X text 966 302 8 9 10 11;
#X text 1068 279 for a 4x3 grid;
#X text 916 240 The "index" number is mapped like this:;
#X msg 805 309 xmax 320 \, ymax 320;
#X obj 952 501 m_touch2grid mygrid2 2 2;
#N canvas 23 38 582 570 REFERENCE 0;
#X text 24 364 See also:;
#X text 24 31 Name: m_touch2grid;
#X text 24 50 Summary: Map x \, y coordinates to a lower resolution
grid.;
#X text 24 71 Argument 0: NAME;
#X text 24 91 Argument 1: x divisions;
#X text 24 111 Argument 2: y divisions;
#X text 24 134 Inlet 0: x position (0...320);
#X text 24 154 Inlet 1: y position (0...320);
#X text 24 174 Inlet 2: various messages. see example.;
#X text 24 194 Outlet 0: x-grid number;
#X text 24 214 Outlet 1: y-grid number;
#X text 24 234 Outlet 2: index (0=upper left \, xdiv*ydiv-1 = lower
right)index (0=upper left \, xdiv*ydiv-1 = lower right);
#X text 24 294 Description: Map x \, y coordinates to a lower resolution
grid.;
#X text 24 434 Tags: Mapping \, grid;
#X coords 0 -1 1 1 450 450 1 10 10;
#X restore 15 58 pd REFERENCE;
#X connect 0 0 6 0;
#X connect 1 0 10 0;
#X connect 1 0 13 0;
#X connect 2 0 0 0;
#X connect 4 0 3 0;
#X connect 6 0 3 0;
#X connect 6 0 17 0;
#X connect 6 1 5 0;
#X connect 6 1 18 0;
#X connect 6 2 29 0;
#X connect 7 0 9 0;
#X connect 7 0 14 0;
#X connect 8 0 5 0;
#X connect 9 0 6 2;
#X connect 10 0 6 2;
#X connect 11 0 6 1;
#X connect 12 0 11 0;
#X connect 15 0 4 0;
#X connect 16 0 8 0;
#X connect 19 0 20 0;
#X connect 20 0 21 0;
#X connect 21 0 23 0;
#X connect 21 1 22 0;
#X connect 22 0 36 0;
#X connect 22 1 36 1;
#X connect 26 0 6 2;
#X connect 35 0 6 2;
#X connect 36 0 23 1;
#X connect 36 1 23 2;
#X connect 36 2 28 0;
