#N canvas 4 22 1276 756 10;
#X obj 604 470 s_drumelectro;
#X obj 607 177 c_multimetro 16 120;
#X obj 737 134 loadbang;
#X obj 607 227 select 0 4 8 12 15;
#X obj 604 518 soundoutput;
#X obj 607 152 tgl 15 0 empty empty empty 17 7 0 10 -262144 -1 -1 0
1;
#X msg 656 287 bd;
#X obj 604 399 r \$0-drums;
#X obj 607 317 s \$0-drums;
#X msg 779 284 sn;
#X msg 816 284 sn;
#X obj 779 225 select 4 12;
#X msg 939 288 hh;
#X msg 1022 295 oh;
#X obj 939 229 select 0 2 4 12;
#X obj 633 432 g_hsl hhtune 0 2;
#N canvas 0 22 450 300 rand 0;
#X obj 94 158 outlet;
#X obj 94 22 inlet;
#X obj 94 47 t b a;
#X obj 94 123 list prepend;
#X obj 94 99 + 500;
#X obj 94 73 random 1500;
#X connect 1 0 2 0;
#X connect 2 0 5 0;
#X connect 2 1 3 1;
#X connect 3 0 0 0;
#X connect 4 0 3 0;
#X connect 5 0 4 0;
#X restore 1022 322 pd rand;
#X msg 1111 289 cp;
#N canvas 0 22 450 300 rand 0;
#X obj 94 158 outlet;
#X obj 94 22 inlet;
#X obj 94 47 t b a;
#X obj 94 123 list prepend;
#X obj 94 100 + 80;
#X obj 94 73 random 20;
#X floatatom 134 101 5 0 0 0 - - -;
#X connect 1 0 2 0;
#X connect 2 0 5 0;
#X connect 2 1 3 1;
#X connect 3 0 0 0;
#X connect 4 0 3 0;
#X connect 5 0 4 0;
#X connect 6 0 4 1;
#X restore 1111 322 pd rand;
#N canvas 0 22 450 300 rand 0;
#X obj 94 158 outlet;
#X obj 94 22 inlet;
#X obj 94 47 t b a;
#X obj 94 123 list prepend;
#X obj 94 100 + 50;
#X obj 94 73 random 100;
#X connect 1 0 2 0;
#X connect 2 0 5 0;
#X connect 2 1 3 1;
#X connect 3 0 0 0;
#X connect 4 0 3 0;
#X connect 5 0 4 0;
#X restore 939 321 pd rand;
#N canvas 0 22 450 300 rand 0;
#X obj 94 100 + 100;
#X obj 94 158 outlet;
#X obj 94 22 inlet;
#X obj 94 47 t b a;
#X obj 94 123 list prepend;
#X obj 94 73 random 200;
#X connect 0 0 4 0;
#X connect 2 0 3 0;
#X connect 3 0 5 0;
#X connect 3 1 4 1;
#X connect 4 0 1 0;
#X connect 5 0 0 0;
#X restore 816 308 pd rand;
#X obj 604 493 *~ 0.5;
#X msg 737 154 110 90;
#N canvas 0 22 755 571 pass 0;
#X obj 67 88 random 100;
#X obj 67 158 sel 1;
#X obj 67 202 outlet;
#X obj 67 29 inlet;
#X obj 172 29 inlet;
#X obj 67 111 < 100;
#X obj 67 179 list;
#X obj 67 55 t b a;
#X floatatom 130 114 5 0 100 0 - - -;
#X connect 0 0 5 0;
#X connect 1 0 6 0;
#X connect 3 0 7 0;
#X connect 4 0 5 1;
#X connect 5 0 1 0;
#X connect 6 0 2 0;
#X connect 7 0 0 0;
#X connect 7 1 6 1;
#X connect 8 0 5 1;
#X coords 0 -1 1 1 85 30 1 100 100;
#X restore 779 358 pd pass;
#X obj 779 392 s \$0-drums;
#N canvas 0 22 755 571 pass 0;
#X obj 67 88 random 100;
#X obj 67 158 sel 1;
#X obj 67 202 outlet;
#X obj 67 29 inlet;
#X obj 172 29 inlet;
#X obj 67 111 < 100;
#X obj 67 179 list;
#X obj 67 55 t b a;
#X floatatom 130 114 5 0 100 0 - - -;
#X connect 0 0 5 0;
#X connect 1 0 6 0;
#X connect 3 0 7 0;
#X connect 4 0 5 1;
#X connect 5 0 1 0;
#X connect 6 0 2 0;
#X connect 7 0 0 0;
#X connect 7 1 6 1;
#X connect 8 0 5 1;
#X coords 0 -1 1 1 85 30 1 100 100;
#X restore 939 361 pd pass;
#X obj 939 395 s \$0-drums;
#N canvas 0 22 755 571 pass 0;
#X obj 67 88 random 100;
#X obj 67 158 sel 1;
#X obj 67 202 outlet;
#X obj 67 29 inlet;
#X obj 172 29 inlet;
#X obj 67 111 < 100;
#X obj 67 179 list;
#X obj 67 55 t b a;
#X floatatom 130 114 5 0 100 0 - - -;
#X connect 0 0 5 0;
#X connect 1 0 6 0;
#X connect 3 0 7 0;
#X connect 4 0 5 1;
#X connect 5 0 1 0;
#X connect 6 0 2 0;
#X connect 7 0 0 0;
#X connect 7 1 6 1;
#X connect 8 0 5 1;
#X coords 0 -1 1 1 85 30 1 100 100;
#X restore 1111 357 pd pass;
#X obj 1111 391 s \$0-drums;
#X text 1013 64 hh: hihat;
#X text 1013 80 oh: open hihat;
#X text 1012 47 bd: bass drum;
#X text 1012 96 sn: snare;
#X text 780 437 hihat tuning;
#X obj 1111 230 select 8 11 14;
#X text 913 145 Most can optionally be extended with the decay time
\, "cp" with midi like velocity.;
#X text 1012 112 cp: clap;
#X obj 1019 487 u_loadmeter;
#X msg 607 286 bd 500;
#N canvas 47 37 557 602 REFERENCE 0;
#X text 114 121 Name: s_drumelectro;
#X text 113 140 Summary: silly electronic drummachine for quick testing.
;
#X text 114 164 Inlet 0:;
#X text 114 184 Inlet 1:;
#X text 114 204 Inlet 2:;
#X text 114 246 Outlet 0:;
#X text 113 411 Description:;
#X text 121 528 Tags: drummachine;
#X coords 0 -1 1 1 450 450 1 100 100;
#X restore 54 98 pd REFERENCE;
#X connect 0 0 21 0;
#X connect 1 0 3 0;
#X connect 1 0 11 0;
#X connect 1 0 14 0;
#X connect 1 0 34 0;
#X connect 2 0 22 0;
#X connect 3 0 38 0;
#X connect 3 1 6 0;
#X connect 3 2 6 0;
#X connect 3 3 6 0;
#X connect 3 4 6 0;
#X connect 5 0 1 0;
#X connect 6 0 8 0;
#X connect 7 0 0 0;
#X connect 9 0 23 0;
#X connect 10 0 20 0;
#X connect 11 0 9 0;
#X connect 11 1 10 0;
#X connect 12 0 19 0;
#X connect 13 0 16 0;
#X connect 14 1 12 0;
#X connect 14 2 13 0;
#X connect 14 3 13 0;
#X connect 14 4 12 0;
#X connect 15 0 0 0;
#X connect 16 0 25 0;
#X connect 17 0 18 0;
#X connect 18 0 27 0;
#X connect 19 0 25 0;
#X connect 20 0 23 0;
#X connect 21 0 4 0;
#X connect 21 0 4 1;
#X connect 22 0 1 2;
#X connect 23 0 24 0;
#X connect 25 0 26 0;
#X connect 27 0 28 0;
#X connect 34 0 17 0;
#X connect 34 1 17 0;
#X connect 34 2 17 0;
#X connect 38 0 8 0;
