#N canvas 194 25 869 675 10;
#X obj 562 413 s_fmoscil MYOSCIL;
#X obj 872 123 g_nbx ratio;
#X obj 872 152 g_nbx index;
#X obj 872 229 g_nbx D;
#X obj 872 259 g_nbx S;
#X obj 872 289 g_nbx R;
#X obj 872 199 g_nbx A;
#X obj 872 361 g_nbx mD;
#X obj 872 391 g_nbx mS;
#X obj 872 421 g_nbx mR;
#X obj 872 331 g_nbx mA;
#X obj 562 226 tgl 15 0 empty empty empty 17 7 0 10 -262144 -1 -1 0
1;
#X obj 562 355 pack 0 0;
#X obj 872 458 s \$0-fmoscil;
#X obj 661 363 r \$0-fmoscil;
#X msg 661 528 ratio 3 \, index 102 \, mR 292 \, mS 8 \, mD 20 \, mA
0 \, R 118 \, S 50 \, D 55 \, A 2 \,;
#X msg 697 387 save;
#X obj 697 413 t a b;
#X obj 872 102 r \$0-GUI;
#X obj 661 566 s \$0-GUI;
#X obj 540 439 soundoutput;
#X obj 1014 485 u_loadmeter;
#X obj 661 503 u_cocollect;
#X obj 562 251 metro 500;
#X obj 562 325 makenote 20 250;
#X obj 562 299 m_majorscale 48;
#X obj 562 276 random 14;
#N canvas 108 49 562 444 some 0;
#X msg 51 32 ratio 3 \, index 51 \, mR 292 \, mS 106 \, mD 64 \, mA
142 \, R 118 \, S 50 \, D 55 \, A 5 \,;
#X obj 51 76 s \$0-GUI;
#X msg 50 101 ratio 3 \, index 102 \, mR 292 \, mS 8 \, mD 20 \, mA
0 \, R 118 \, S 50 \, D 55 \, A 2 \,;
#X obj 50 139 s \$0-GUI;
#X msg 48 168 ratio 3.08 \, index 78 \, mR 19 \, mS 9 \, mD 24 \, mA
19 \, R 58 \, S 62 \, D 81 \, A 50 \,;
#X obj 48 206 s \$0-GUI;
#X msg 48 233 ratio 2 \, index 50 \, mR 88 \, mS 71 \, mD 60 \, mA
42 \, R 161 \, S 80 \, D 92 \, A 28 \,;
#X obj 48 271 s \$0-GUI;
#X msg 49 298 ratio 1 \, index 78 \, mR 241 \, mS 54 \, mD 60 \, mA
9 \, R 161 \, S 80 \, D 97 \, A 5 \,;
#X obj 49 336 s \$0-GUI;
#X connect 0 0 1 0;
#X connect 2 0 3 0;
#X connect 4 0 5 0;
#X connect 6 0 7 0;
#X connect 8 0 9 0;
#X restore 871 487 pd some presets;
#X text 963 123 frequency ratio;
#X msg 1086 122 ratio \$1;
#X text 962 149 modulation index;
#X msg 1087 152 index \$1;
#X text 965 204 ADSR for main volume;
#X msg 976 236 A \$1;
#X msg 1024 235 D \$1;
#X msg 1070 235 S \$1;
#X msg 1117 235 R \$1;
#X text 955 348 ADSR for modulation index;
#X msg 1014 379 mD \$1;
#X msg 1063 379 mS \$1;
#X msg 1109 379 mR \$1;
#X msg 967 378 mA \$1;
#N canvas 4 22 557 602 REFERENCE 0;
#X text 114 247 Outlet 0: output audio;
#X text 114 121 Name: s_fmoscil;
#X text 113 140 Summary: simple 2-operator FM. Uses "real" FM \, not
phase modulation.;
#X text 114 184 Inlet 0: note/velocity pair;
#X text 114 204 Inlet 1: messages. see example.;
#X text 114 267 Outlet 1: output audio;
#X text 114 287 Outlet 2: sends current state when receiving a "save"
message.;
#X text 113 411 Description: simple 2-operator FM. Uses "real" FM \,
not phase modulation.;
#X text 121 528 Tags: synthesizer \, FM;
#X coords 0 -1 1 1 450 450 1 100 100;
#X restore 34 78 pd REFERENCE;
#X connect 0 0 20 0;
#X connect 0 1 20 1;
#X connect 0 2 22 0;
#X connect 1 0 2 0;
#X connect 2 0 6 0;
#X connect 3 0 4 0;
#X connect 4 0 5 0;
#X connect 5 0 10 0;
#X connect 6 0 3 0;
#X connect 7 0 8 0;
#X connect 8 0 9 0;
#X connect 9 0 13 0;
#X connect 10 0 7 0;
#X connect 11 0 23 0;
#X connect 12 0 0 0;
#X connect 14 0 0 1;
#X connect 15 0 19 0;
#X connect 16 0 17 0;
#X connect 17 0 0 1;
#X connect 17 1 22 1;
#X connect 18 0 1 0;
#X connect 22 0 15 0;
#X connect 23 0 26 0;
#X connect 24 0 12 0;
#X connect 24 1 12 1;
#X connect 25 0 24 0;
#X connect 26 0 25 0;
