#N canvas -60 22 1276 756 10;
#X obj 550 299 s_fplaytable;
#X msg 799 92 open;
#X floatatom 948 169 8 0 0 3 dur_in_smps - -;
#X floatatom 874 169 8 0 0 3 dur_in_ms - -;
#X symbolatom 799 169 10 0 0 3 table_name - -;
#X obj 799 139 unpack s f f f;
#X floatatom 1022 169 6 0 0 3 samplerate - -;
#X obj 550 471 soundoutput;
#X msg 866 236 open;
#X obj 616 379 s_fplaytable2;
#X floatatom 1015 339 8 0 0 3 dur_in_smps - -;
#X floatatom 941 339 8 0 0 3 dur_in_ms - -;
#X symbolatom 866 339 10 0 0 3 table_name - -;
#X obj 866 289 unpack s f f f;
#X floatatom 1099 339 6 0 0 3 samplerate - -;
#X obj 799 115 u_samplebank mono;
#X obj 866 260 u_samplebank2 stereo;
#X msg 550 268 mono 2000;
#X msg 502 268 mono;
#X text 553 247 start 2000 ms into sample;
#X text 502 246 all;
#X text 680 326 start 2000 ms into sample;
#X text 609 328 all;
#X msg 616 350 stereo;
#X msg 673 351 stereo 2000;
#N canvas 4 22 557 602 REFERENCE 0;
#X text 114 184 Inlet 0:;
#X text 114 204 Inlet 1:;
#X text 114 247 Outlet 0: output audio;
#X text 113 411 Description:;
#X text 114 121 Name: s_fplaytable;
#X text 113 140 Summary:;
#X text 114 267 Outlet 1:;
#X text 121 529 Tags: synthesizer \, table;
#X coords 0 -1 1 1 450 450 1 100 100;
#X restore 24 68 pd REFERENCE;
#X connect 0 0 7 0;
#X connect 0 0 7 1;
#X connect 1 0 15 0;
#X connect 5 0 4 0;
#X connect 5 1 3 0;
#X connect 5 2 2 0;
#X connect 5 3 6 0;
#X connect 8 0 16 0;
#X connect 9 0 7 0;
#X connect 9 1 7 1;
#X connect 13 0 12 0;
#X connect 13 1 11 0;
#X connect 13 2 10 0;
#X connect 13 3 14 0;
#X connect 15 0 5 0;
#X connect 16 0 13 0;
#X connect 17 0 0 0;
#X connect 18 0 0 0;
#X connect 23 0 9 0;
#X connect 24 0 9 0;
