#N canvas 127 22 1153 601 10;
#X msg 704 265 pitch \$1;
#X floatatom 678 216 5 0 0 0 - - -;
#X obj 588 386 soundoutput;
#X msg 588 268 bang;
#X floatatom 812 246 5 0 100 0 - - -;
#X obj 812 266 / 100;
#X msg 812 288 feedback \$1;
#X floatatom 947 243 5 0 0 0 - - -;
#X obj 947 263 mtof;
#X msg 947 292 lpfreq \$1;
#X floatatom 983 264 5 0 0 0 - - -;
#X obj 678 239 t b a;
#X msg 911 369 pickuppos \$1;
#X msg 808 370 pluckpos \$1;
#X floatatom 808 328 5 0 0 0 - - -;
#X obj 808 348 / 100;
#X floatatom 911 328 5 0 0 0 - - -;
#X obj 911 348 / 100;
#X obj 520 332 env~;
#X obj 520 357 - 100;
#X obj 521 382 vu 15 120 empty empty -1 -8 0 10 -66577 -1 1 0;
#X obj 678 163 random 12;
#X obj 678 98 tgl 15 0 empty empty empty 17 7 0 10 -262144 -1 -1 0
1;
#X obj 754 162 random 2;
#X obj 678 143 t b b;
#X obj 755 191 * 12;
#X obj 678 190 + 40;
#X obj 715 192 +;
#X obj 678 118 metro 250;
#X obj 588 293 s_guitar myguitar;
#X floatatom 504 218 5 0 0 0 - - -;
#X obj 504 257 mtof;
#N canvas 4 22 596 602 REFERENCE 0;
#X text 114 121 Name: s_guitar;
#X text 113 140 Summary: Karplus Strong Guitar(This is not finished
yet!);
#X text 114 174 Argument 0: name;
#X text 114 214 Inlet 0:;
#X text 114 234 Inlet 1:;
#X text 114 267 Outlet 0: output audio;
#X text 113 411 Description:;
#X text 121 529 Tags: synthesizer \, string \, guitar;
#X coords 0 -1 1 1 450 450 1 100 100;
#X restore 14 58 pd REFERENCE;
#X connect 0 0 29 1;
#X connect 1 0 11 0;
#X connect 3 0 29 0;
#X connect 4 0 5 0;
#X connect 5 0 6 0;
#X connect 6 0 29 1;
#X connect 7 0 8 0;
#X connect 8 0 9 0;
#X connect 8 0 10 0;
#X connect 9 0 29 1;
#X connect 11 0 29 0;
#X connect 11 1 0 0;
#X connect 12 0 29 1;
#X connect 13 0 29 1;
#X connect 14 0 15 0;
#X connect 15 0 13 0;
#X connect 16 0 17 0;
#X connect 17 0 12 0;
#X connect 18 0 19 0;
#X connect 19 0 20 0;
#X connect 21 0 27 0;
#X connect 22 0 28 0;
#X connect 23 0 25 0;
#X connect 24 0 21 0;
#X connect 24 1 23 0;
#X connect 25 0 27 1;
#X connect 26 0 1 0;
#X connect 27 0 26 0;
#X connect 28 0 24 0;
#X connect 29 0 18 0;
#X connect 29 0 2 0;
#X connect 29 0 2 1;
#X connect 30 0 31 0;
#X connect 31 0 29 0;
