#N canvas 4 22 1276 756 10;
#X obj 1004 317 openpanel;
#X obj 1004 364 soundfiler;
#X obj 1004 290 bng 20 250 50 0 empty empty open-sample 0 -6 1 10 -262144
-1 -1;
#X obj 522 514 soundoutput;
#X msg 558 149 play-samp 0.5 2;
#X text 756 175 original gain \, original pitch \, start at 500 ms
;
#X msg 571 201 play-samp 1 1 500 250;
#X msg 567 178 play-samp 1 1 500;
#X msg 578 295 bang;
#X text 620 295 repeat last instruction;
#X obj 640 494 spigot;
#X obj 695 495 tgl 15 0 empty empty empty 17 7 0 10 -262144 -1 -1 0
1;
#X obj 640 522 bng 15 250 50 0 empty empty empty 17 7 0 10 -262144
-1 -1;
#X msg 577 259 play-samp 0.8 -1 8000 8000;
#X text 575 235 attenuated \, reversed \, starting at 8000ms \, playing
for 8000ms;
#X text 633 472 last outlet: bang at end of duration;
#X text 755 199 original gain \, original pitch \, start at 500 ms
\, play for 250ms;
#X msg 522 98 play-samp;
#X msg 678 360 sr 44100;
#X msg 603 359 sr 22050;
#X text 601 339 adjust file samplerate (Hz \, default 22050);
#X text 703 143 attenuated \, transposed up an octave.Transposition
is doen by resampling;
#X msg 542 123 play-samp 1 1 0 8000;
#X text 603 98 play all with original gain and original pitch;
#X msg 620 451 stop;
#X text 661 452 stop playing;
#X obj 1002 477 table play-samp-1;
#X obj 1002 499 table play-samp-2;
#X msg 1004 338 read -resize \$1 play-samp-1 play-samp-2;
#X obj 522 453 s_playtable2;
#X text 795 531 The tables to play must have the same basename with
"-1 " for left and "-2" for right channel appended.;
#X obj 797 570 u_samplebank2 \$0-stereo-sample;
#X text 1017 570 does this automatically for you.;
#X text 701 120 original gain \, original pitch \, start at 0 \, play
for 8000ms;
#X msg 680 401 fade \$1;
#X floatatom 680 383 5 0 0 0 - - -;
#X text 744 392 fade in/out time (default is 2msec);
#N canvas 2 22 580 449 REFERENCE 0;
#X text 110 260 Description: s_playtable is controlled through messages
composed of: <table name> <gain> <transposition> <start location (ms)>
<duration (ms)> <looping 0/1>;
#X text 110 110 Inlet 0: play-samp messages with various parameters-->see
example. bang: to repeat last instruction.;
#X text 110 145 Inlet 1: messages: sr to adjust sample rate. fade:
fade in/out time. stop: to stop playback.;
#X text 110 189 Outlet 0: signal output;
#X text 110 209 Outlet 1: last outlet: bang at the end of duration.
;
#X text 113 346 Tags: table player \, sample player;
#X text 110 41 Name: s_playtable2;
#X text 110 62 Summary: Low level \, but flexible table-sample stereo
player. Plays two tables called "basename-1" and "basename-2";
#X coords 0 -1 1 1 450 350 1 100 20;
#X restore 37 59 pd REFERENCE;
#X connect 0 0 28 0;
#X connect 2 0 0 0;
#X connect 4 0 29 0;
#X connect 6 0 29 0;
#X connect 7 0 29 0;
#X connect 8 0 29 0;
#X connect 10 0 12 0;
#X connect 10 0 29 0;
#X connect 11 0 10 1;
#X connect 13 0 29 0;
#X connect 17 0 29 0;
#X connect 18 0 29 1;
#X connect 19 0 29 1;
#X connect 22 0 29 0;
#X connect 24 0 29 1;
#X connect 28 0 1 0;
#X connect 29 0 3 0;
#X connect 29 1 3 1;
#X connect 29 2 10 0;
#X connect 34 0 29 1;
#X connect 35 0 34 0;
