#N canvas 4 22 1049 623 10;
#X obj 766 208 hsl 128 15 0 1 0 0 empty empty tone_(0...1) 20 7 1 10
-262144 -1 -1 0 1;
#X obj 519 241 makenote 100 100;
#X obj 519 264 pack 0 0;
#X obj 518 401 soundoutput;
#N canvas 145 44 577 652 random 0;
#X obj 100 99 select 1;
#X obj 100 35 inlet;
#X obj 174 203 * 200;
#X obj 174 231 t a a;
#X obj 449 409 outlet;
#X obj 100 367 random 12;
#X obj 174 144 random 4;
#X obj 174 169 + 1;
#X obj 174 268 delay;
#X obj 100 60 t a a;
#X obj 340 192 spigot 1;
#X obj 175 391 * 12;
#X obj 175 367 random 3;
#X obj 100 422 +;
#X obj 100 479 outlet;
#X obj 259 367 random 40;
#X obj 259 387 + 40;
#X obj 259 473 outlet;
#X obj 100 332 t b b b;
#X obj 100 451 + 40;
#X obj 269 39 inlet;
#X obj 449 380 - 1;
#X connect 0 0 6 0;
#X connect 1 0 9 0;
#X connect 2 0 3 0;
#X connect 3 0 8 0;
#X connect 3 0 18 0;
#X connect 3 1 21 0;
#X connect 5 0 13 0;
#X connect 6 0 7 0;
#X connect 7 0 2 0;
#X connect 8 0 10 0;
#X connect 9 0 0 0;
#X connect 9 1 10 1;
#X connect 10 0 6 0;
#X connect 11 0 13 1;
#X connect 12 0 11 0;
#X connect 13 0 19 0;
#X connect 15 0 16 0;
#X connect 16 0 17 0;
#X connect 18 0 5 0;
#X connect 18 1 12 0;
#X connect 18 2 15 0;
#X connect 19 0 14 0;
#X connect 20 0 2 1;
#X connect 21 0 4 0;
#X restore 519 205 pd random notes;
#X obj 519 183 tgl 15 0 empty empty empty 17 7 0 10 -262144 -1 -1 0
1;
#X floatatom 535 287 5 0 0 3 pitch - -;
#X floatatom 628 285 5 0 0 3 velocity - -;
#X floatatom 621 183 5 0 0 0 - - -;
#X text 499 485 It's a clone of the STK Rhodey.;
#X obj 628 331 r \$0-in1;
#X obj 763 253 s \$0-in1;
#X msg 763 229 tone \$1;
#X obj 763 338 s \$0-in1;
#X floatatom 763 293 5 0 0 0 - - -;
#X obj 875 337 s \$0-in1;
#X floatatom 875 292 5 0 0 0 - - -;
#X msg 644 358 help;
#X obj 764 436 s \$0-in1;
#X floatatom 764 391 5 0 0 0 - - -;
#X msg 764 413 mod \$1;
#X msg 763 314 vib-freq \$1;
#X msg 875 314 vib-depth \$1;
#X obj 519 358 s_rhodey mypiano;
#X obj 878 434 s \$0-in1;
#X floatatom 878 389 5 0 127 0 - - -;
#X msg 878 411 adsr24 \$1;
#X obj 932 253 s \$0-in1;
#X floatatom 932 208 5 0 0 0 - - -;
#X msg 932 230 decay \$1;
#N canvas 25 22 571 671 REFERENCE 0;
#X text 114 121 Name: s_rhodey;
#X text 114 141 Summary: Rhodes piano realised with a 4-operator FM
synth;
#X text 114 164 Argument 0: name of the instance.;
#X text 114 184 Inlet 0: midi note/velocity pairs;
#X text 114 204 Inlet 1: accepts various methods: tone: float from
0...1 \, default is 0.5) decay: decay of note in msec (default: 1500)
vib-freq: vibrato frequency (try 11) vib-depth: vibrato depth (try
1) mod: modulation index for first operator pair (default 1)adsr24:
depth of the modulating operator's (2 and 4) envelopes (0-127 \, default
127) (this is an exotic parameter...);
#X text 114 337 Outlet 0: audio signal;
#X text 114 371 Description: Rhodes piano realised with a 4-operator
FM synth;
#X text 122 529 Tags: synth \, piano \, FM;
#X coords 0 -1 1 1 450 450 1 100 100;
#X restore 15 58 pd REFERENCE;
#X connect 0 0 12 0;
#X connect 1 0 2 0;
#X connect 1 0 6 0;
#X connect 1 1 2 1;
#X connect 1 1 7 0;
#X connect 2 0 23 0;
#X connect 4 0 1 0;
#X connect 4 1 1 1;
#X connect 4 2 1 2;
#X connect 5 0 4 0;
#X connect 8 0 4 1;
#X connect 10 0 23 1;
#X connect 12 0 11 0;
#X connect 14 0 21 0;
#X connect 16 0 22 0;
#X connect 17 0 23 1;
#X connect 19 0 20 0;
#X connect 20 0 18 0;
#X connect 21 0 13 0;
#X connect 22 0 15 0;
#X connect 23 0 3 0;
#X connect 23 0 3 1;
#X connect 25 0 26 0;
#X connect 26 0 24 0;
#X connect 28 0 29 0;
#X connect 29 0 27 0;
