#N canvas 140 108 847 575 10;
#X declare -path .;
#X declare -path rj;
#X declare -path ../pd;
#X declare -path ../../pd;
#N canvas 0 22 588 274 LICENSE 0;
#X text 79 84 (c) 2008 Reality Jockey;
#X text 57 36 Released under the GNU General Public License ver. 3
or later. See the file LICENSE.txt for the full text.;
#X restore 571 80 pd LICENSE;
#X obj 135 253 soundinput;
#X obj 73 491 soundoutput;
#X obj 571 108 OVERVIEW;
#X text 27 23 RjDj Scene Template - _main.pd;
#X obj 571 24 declare -path .;
#X obj 571 52 declare -path rj;
#X text 639 108 of all RjDj abstractions;
#X obj 76 326 e_vocoder thisvoco;
#N canvas 0 22 660 424 chord 0;
#X obj 92 147 -~ 0.5;
#X obj 92 196 clip~ -0.5 0.5;
#X obj 92 219 cos~;
#X obj 91 302 hip~ 5;
#X obj 91 365 outlet~;
#X obj 92 172 *~ 3;
#X obj 92 124 phasor~ 220;
#X obj 221 147 -~ 0.5;
#X obj 221 196 clip~ -0.5 0.5;
#X obj 221 219 cos~;
#X obj 221 172 *~ 3;
#X obj 356 150 -~ 0.5;
#X obj 356 199 clip~ -0.5 0.5;
#X obj 356 222 cos~;
#X obj 356 175 *~ 3;
#X obj 221 124 phasor~ 251;
#X obj 356 127 phasor~ 281;
#X obj 91 335 *~ 0.2;
#X msg 430 76 0;
#X obj 92 29 inlet;
#X text 204 32 test sound;
#X obj 92 79 mtof;
#X obj 132 81 mtof;
#X obj 168 82 mtof;
#X floatatom 237 50 5 0 0 0 - - -;
#X obj 465 153 -~ 0.5;
#X obj 465 202 clip~ -0.5 0.5;
#X obj 465 225 cos~;
#X obj 465 178 *~ 3;
#X obj 465 130 phasor~ 281;
#X obj 92 52 unpack 0 0 0 0;
#X obj 210 81 mtof;
#X connect 0 0 5 0;
#X connect 1 0 2 0;
#X connect 2 0 3 0;
#X connect 3 0 17 0;
#X connect 5 0 1 0;
#X connect 6 0 0 0;
#X connect 7 0 10 0;
#X connect 8 0 9 0;
#X connect 9 0 3 0;
#X connect 10 0 8 0;
#X connect 11 0 14 0;
#X connect 12 0 13 0;
#X connect 13 0 3 0;
#X connect 14 0 12 0;
#X connect 15 0 7 0;
#X connect 16 0 11 0;
#X connect 17 0 4 0;
#X connect 18 0 16 1;
#X connect 18 0 15 1;
#X connect 18 0 6 1;
#X connect 18 0 29 1;
#X connect 19 0 30 0;
#X connect 21 0 6 0;
#X connect 22 0 15 0;
#X connect 23 0 16 0;
#X connect 24 0 23 0;
#X connect 25 0 28 0;
#X connect 26 0 27 0;
#X connect 27 0 3 0;
#X connect 28 0 26 0;
#X connect 29 0 25 0;
#X connect 30 0 21 0;
#X connect 30 1 22 0;
#X connect 30 2 23 0;
#X connect 30 3 31 0;
#X connect 31 0 29 0;
#X restore 76 215 pd chord;
#X msg 103 157 52 55 59 62;
#X msg 77 181 50 53 57 60;
#X msg 130 136 57 60 64 67;
#N canvas 0 22 872 603 angle 0;
#X obj 271 27 r #accelerate;
#X obj 270 52 unpack f f f;
#X obj 307 124 < -0.5;
#X obj 419 127 > 0.5;
#X obj 351 87 t f f;
#X obj 345 213 == 0;
#X obj 394 215 == 0;
#X obj 305 155 t f f;
#X obj 416 159 t f f;
#X obj 368 245 &&;
#X obj 306 302 sel 1;
#X obj 369 301 sel 1;
#X obj 447 302 sel 1;
#X obj 307 389 outlet up;
#X obj 367 428 outlet middle;
#X obj 453 485 outlet down;
#X connect 0 0 1 0;
#X connect 1 2 4 0;
#X connect 2 0 7 0;
#X connect 3 0 8 0;
#X connect 4 0 2 0;
#X connect 4 1 3 0;
#X connect 5 0 9 0;
#X connect 6 0 9 1;
#X connect 7 0 10 0;
#X connect 7 1 5 0;
#X connect 8 0 6 0;
#X connect 8 1 12 0;
#X connect 9 0 11 0;
#X connect 10 0 13 0;
#X connect 11 0 14 0;
#X connect 12 0 15 0;
#X restore 78 105 pd angle;
#X text 72 70 This object triggers one of three chords depending on
what angle the device is tilted to.;
#X text 131 358 A vocoder processes microphone input;
#X text 145 216 Source of chord sound;
#X text 206 164 MIDI note lists for three different chords;
#N canvas 0 0 448 215 more_paths 0;
#X text 27 19 You can add more paths here as well \, like the path
to soundoutput.pd on your computer etc.;
#X obj 36 57 declare -path ../pd;
#X obj 35 79 declare -path ../../pd;
#X restore 707 51 pd more_paths;
#X connect 1 0 8 1;
#X connect 1 1 8 1;
#X connect 8 0 2 0;
#X connect 8 0 2 1;
#X connect 9 0 8 0;
#X connect 10 0 9 0;
#X connect 11 0 9 0;
#X connect 12 0 9 0;
#X connect 13 0 11 0;
#X connect 13 1 10 0;
#X connect 13 2 12 0;
