#N canvas 0 22 788 515 10;
#N canvas 377 58 827 710 REFERENCE 0;
#X text 114 121 Name: c_bangx;
#X text 114 140 Summary: bang x times with constant delay and stop
;
#X text 114 200 Inlet 0: float to set number of bangs to generate;
#X text 114 242 Outlet 0: bangs;
#X text 122 529 Tags: metro \, stop \, bang;
#X text 115 216 Inlet 1: float to set delay time between bangs;
#X text 115 279 Description: c_bangx start to bang as often as you
tell it to bang through the first inlet. The second inlet will set
the delay time between each bang. c_bangx will stop automatically.
;
#X text 115 172 Argument 0: float to set delay time between bangs (optional)
;
#X coords 0 -1 1 1 450 450 1 100 100;
#X restore 5 48 pd REFERENCE;
#X floatatom 576 125 5 0 0 0 - - -, f 5;
#X obj 513 210 bng 15 250 50 0 empty empty empty 17 7 0 10 -262144
-1 -1;
#X text 7 14 c_bangx - bang x times with constant delay and stop;
#X msg 576 103 500;
#X msg 520 123 2;
#X msg 513 98 5;
#X msg 617 104 100;
#X obj 550 216 t b b;
#X obj 550 243 timer;
#X floatatom 550 270 5 0 0 0 - - -, f 5;
#X obj 550 301 u_collect;
#X msg 550 330;
#X msg 610 278 clear;
#X obj 513 162 c_bangx 500;
#X connect 1 0 14 1;
#X connect 4 0 1 0;
#X connect 5 0 14 0;
#X connect 6 0 14 0;
#X connect 7 0 1 0;
#X connect 8 0 9 0;
#X connect 8 1 9 1;
#X connect 9 0 10 0;
#X connect 10 0 11 0;
#X connect 11 0 12 0;
#X connect 13 0 11 1;
#X connect 14 0 2 0;
#X connect 14 0 8 0;
