#N canvas 311 310 567 357 10;
#X obj 96 131 inlet~;
#X obj 95 256 outlet~;
#X obj 96 199 *~;
#X obj 253 214 line~;
#X obj 253 192 pack 0 10;
#X obj 253 146 * 0.01;
#X floatatom 261 118 5 0 100 0 - - -;
#X obj 252 243 *~;
#X obj 253 172 clip 0 1;
#X obj 353 179 outlet;
#X obj 154 131 inlet~;
#X obj 153 256 outlet~;
#X obj 154 199 *~;
#X obj 253 49 inlet;
#X msg 353 155 set \$1;
#X msg 261 80 set \$1;
#X connect 0 0 2 0;
#X connect 2 0 1 0;
#X connect 3 0 7 0;
#X connect 3 0 7 1;
#X connect 4 0 3 0;
#X connect 5 0 8 0;
#X connect 6 0 5 0;
#X connect 6 0 14 0;
#X connect 7 0 12 1;
#X connect 7 0 2 1;
#X connect 8 0 4 0;
#X connect 10 0 12 0;
#X connect 12 0 11 0;
#X connect 13 0 15 0;
#X connect 13 0 5 0;
#X connect 14 0 9 0;
#X connect 15 0 6 0;
#X connect 15 0 9 0;
#X coords 0 -1 1 1 65 35 1 250 100;
