#N canvas 0 0 583 545 10;
#X obj 184 133 c_vol;
#X msg 255 143 49;
#X obj 184 103 noise~;
#X obj 183 202 env~ 16384 8192;
#X obj 183 229 - 100;
#X obj 184 261 vu 15 120 empty empty -1 -8 0 10 -66577 -1 1 0;
#X obj 255 120 loadbang;
#X msg 344 164 \; pd dsp 1;
#X obj 344 140 loadbang;
#X floatatom 242 91 5 0 0 0 - - -;
#X connect 0 0 3 0;
#X connect 0 2 1 0;
#X connect 1 0 0 2;
#X connect 2 0 0 0;
#X connect 2 0 0 1;
#X connect 3 0 4 0;
#X connect 4 0 5 0;
#X connect 6 0 1 0;
#X connect 8 0 7 0;
#X connect 9 0 0 2;
