#N canvas 275 135 964 509 10;
#N canvas 86 276 827 710 REFERENCE 0;
#X text 114 174 Arg 0: threshold <float> (0 - 100);
#X text 114 194 Arg 1: ratio <float> (1 - 100);
#X text 114 374 Description: Simple piecewise linear compressor with
adjustable threshold and ratio controls. Attack and release is set
to 40 ms.;
#X text 114 524 Tags: Dynamics;
#X text 114 454 See also: [e_mcompressor] \, [e_compressorgui];
#X text 114 121 Name: e_scompressor;
#X text 114 141 Summary: stereo compressor with set attack and release
times;
#X text 114 224 Inlet 0: left audio input signal;
#X text 114 244 Inlet 1: right audio input signal;
#X text 114 264 Inlet 2: control inlet (can also attach to compressor
gui);
#X text 114 334 Outlet 2: control outlet (to interface with compressor
gui);
#X text 114 294 Outlet 0: compressed left audio output signal;
#X text 114 314 Outlet 1: compressed left audio output signal;
#X coords 0 -1 1 1 450 450 1 100 100;
#X restore 19 41 pd REFERENCE;
#X msg 672 207 load;
#X obj 508 414 dac~;
#X text 709 207 loads the current settings for the gui;
#X text 709 227 (turn on the gui first!);
#X text 671 433 [e_compressorgui];
#X obj 674 273 g_compressorgui;
#X text 877 473 RjDj 2012;
#X obj 508 54 osc~ 440;
#X obj 560 185 *~;
#X obj 575 155 osc~ 0.1;
#X obj 508 107 *~;
#X obj 523 74 osc~ 0.2;
#X obj 508 353 e_scompressor 67 2;
#X obj 560 134 osc~ 528;
#X connect 1 0 13 2;
#X connect 6 0 13 2;
#X connect 8 0 11 0;
#X connect 9 0 13 1;
#X connect 10 0 9 1;
#X connect 11 0 13 0;
#X connect 12 0 11 1;
#X connect 13 0 2 0;
#X connect 13 1 2 1;
#X connect 13 2 6 0;
#X connect 14 0 9 0;
