#N canvas 636 22 621 856 10;
#X obj 139 437 t b f;
#X obj 84 497 f;
#X obj 84 527 /;
#X obj 84 467 -;
#X obj 39 391 f;
#X obj 173 349 t b f f;
#X obj 84 557 +;
#X obj 399 45 inlet;
#X obj 383 787 list trim;
#X obj 383 687 r \$0-to-gui;
#X obj 399 65 u_dispatch \$0 load;
#X obj 257 248 r \$0-load;
#X obj 173 255 \$1;
#X obj 346 254 \$2;
#X obj 173 277 t f f;
#X msg 229 410 threshold \$1;
#X obj 229 432 s \$0-to-gui;
#X obj 173 163 loadbang;
#X obj 173 185 t b b;
#X obj 346 276 t f f;
#X msg 358 408 ratio \$1;
#X obj 358 430 s \$0-to-gui;
#X obj 399 85 u_dispatch \$0 gui-state;
#X obj 383 757 list prepend gui;
#X obj 229 387 f;
#X obj 257 270 t b b;
#X obj 358 388 f;
#X obj 399 105 u_dispatch \$0 threshold;
#X obj 399 125 u_dispatch \$0 ratio;
#X obj 346 224 r \$0-ratio;
#X obj 181 224 r \$0-threshold;
#X obj 39 164 env~ 256;
#X obj 39 294 s \$0-inputlevel;
#X obj 39 324 r \$0-inputlevel;
#X obj 39 354 t f f;
#X obj 39 587 s \$0-outputlevel;
#N canvas 639 436 358 251 gainreduc 0;
#X obj 32 94 -;
#X obj 32 114 / 20;
#X obj 32 134 t b f;
#X msg 32 154 10;
#X obj 32 174 pow;
#X obj 32 34 inlet output;
#X obj 47 64 inlet input;
#X obj 32 206 outlet gain-reduction;
#X text 70 172 gr = 20*log10(output - input);
#X obj 141 64 r \$0-switch;
#X obj 141 86 sel 0;
#X msg 141 108 1;
#X text 174 109 If switched off \, no gr;
#X connect 0 0 1 0;
#X connect 1 0 2 0;
#X connect 2 0 3 0;
#X connect 2 1 4 1;
#X connect 3 0 4 0;
#X connect 4 0 7 0;
#X connect 5 0 0 0;
#X connect 6 0 0 1;
#X connect 9 0 10 0;
#X connect 10 0 11 0;
#X connect 11 0 7 0;
#X restore 174 697 pd gainreduc;
#X obj 174 677 r \$0-outputlevel;
#X obj 159 787 *~;
#X obj 174 737 pack f 40;
#X obj 174 757 line~;
#X text 116 527 Gain reduction;
#X obj 399 145 u_dispatch \$0 graph-input;
#X obj 399 165 u_dispatch \$0 switch;
#X obj 49 264 r \$0-graph-input;
#X obj 84 222 r \$0-switch;
#X obj 39 242 spigot 1;
#N canvas 0 22 688 449 GUI 0;
#X msg 55 237 input \$1;
#X obj 55 197 spigot 0;
#X obj 100 117 r \$0-gui-state;
#X obj 55 86 r \$0-inputlevel;
#X obj 248 179 spigot 0;
#X msg 248 219 output \$1;
#X obj 248 128 r \$0-outputlevel;
#X obj 55 217 m_speedlimit 50;
#X obj 248 199 m_speedlimit 50;
#X obj 293 159 r \$0-gui-state;
#X obj 474 128 r \$0-outputlevel;
#X obj 474 203 spigot 0;
#X obj 519 153 r \$0-switch;
#X obj 519 175 == 0;
#X text 490 103 Redraws graph;
#X text 256 103 Output level meter;
#X text 57 63 Input level meter;
#X obj 248 379 outlet \$0-to-gui;
#X msg 474 225 graph-output \$1;
#X connect 0 0 17 0;
#X connect 1 0 7 0;
#X connect 2 0 1 1;
#X connect 3 0 1 0;
#X connect 4 0 8 0;
#X connect 5 0 17 0;
#X connect 6 0 4 0;
#X connect 7 0 0 0;
#X connect 8 0 5 0;
#X connect 9 0 4 1;
#X connect 10 0 11 0;
#X connect 11 0 18 0;
#X connect 12 0 13 0;
#X connect 13 0 11 1;
#X connect 18 0 17 0;
#X restore 405 721 pd GUI INTERFACE;
#X obj 174 717 min 1;
#X obj 512 678 loadbang;
#X msg 512 720 gui-state 0;
#X obj 512 700 del 10;
#X text 528 813 RjDj 2012;
#X obj 112 164 env~ 256;
#X obj 39 437 moses 70;
#X obj 99 437 t f f;
#X obj 39 202 max;
#X obj 39 77 s~ \$0-inputSignalLeft;
#X obj 178 77 s~ \$0-inputSignalRight;
#X obj 39 617 r~ \$0-inputSignalLeft;
#X obj 159 647 r~ \$0-inputSignalRight;
#X obj 39 787 *~;
#X obj 39 117 r~ \$0-inputSignalLeft;
#X obj 112 137 r~ \$0-inputSignalRight;
#X obj 159 817 outlet~ rightOutput;
#X obj 39 817 outlet~ leftOutput;
#X obj 383 817 outlet control;
#X text 236 736 ms attack/release;
#X obj 178 45 inlet~ rightInput;
#X obj 39 43 inlet~ leftInput;
#X connect 0 0 1 0;
#X connect 0 1 2 1;
#X connect 1 0 2 0;
#X connect 2 0 6 0;
#X connect 3 0 1 0;
#X connect 4 0 54 0;
#X connect 5 0 4 0;
#X connect 5 1 54 1;
#X connect 5 2 55 0;
#X connect 6 0 35 0;
#X connect 7 0 10 0;
#X connect 8 0 66 0;
#X connect 9 0 23 0;
#X connect 10 0 22 0;
#X connect 11 0 25 0;
#X connect 12 0 14 0;
#X connect 13 0 19 0;
#X connect 14 0 5 0;
#X connect 14 1 24 1;
#X connect 15 0 16 0;
#X connect 17 0 18 0;
#X connect 18 0 12 0;
#X connect 18 1 13 0;
#X connect 19 0 0 0;
#X connect 19 1 26 1;
#X connect 20 0 21 0;
#X connect 22 0 27 0;
#X connect 23 0 8 0;
#X connect 24 0 15 0;
#X connect 25 0 24 0;
#X connect 25 1 26 0;
#X connect 26 0 20 0;
#X connect 27 0 28 0;
#X connect 28 0 42 0;
#X connect 29 0 13 0;
#X connect 30 0 12 0;
#X connect 31 0 56 0;
#X connect 33 0 34 0;
#X connect 34 0 4 0;
#X connect 34 1 36 1;
#X connect 36 0 48 0;
#X connect 37 0 36 0;
#X connect 38 0 64 0;
#X connect 39 0 40 0;
#X connect 40 0 38 1;
#X connect 40 0 61 1;
#X connect 42 0 43 0;
#X connect 44 0 32 0;
#X connect 45 0 46 1;
#X connect 46 0 32 0;
#X connect 47 0 23 0;
#X connect 48 0 39 0;
#X connect 49 0 51 0;
#X connect 50 0 23 0;
#X connect 51 0 50 0;
#X connect 53 0 56 1;
#X connect 54 0 35 0;
#X connect 54 1 3 0;
#X connect 55 0 3 1;
#X connect 55 1 6 1;
#X connect 56 0 46 0;
#X connect 59 0 61 0;
#X connect 60 0 38 0;
#X connect 61 0 65 0;
#X connect 62 0 31 0;
#X connect 63 0 53 0;
#X connect 68 0 58 0;
#X connect 69 0 57 0;
