#N canvas 0 22 223 432 10;
#X obj 28 46 inlet~;
#X obj 93 46 inlet~;
#X obj 28 391 outlet~;
#X obj 63 371 outlet~;
#X obj 28 86 +~;
#X obj 28 301 /~ 2;
#X obj 78 86 -~;
#X obj 78 301 *~;
#X obj 28 341 +~;
#X obj 63 341 -~;
#X obj 113 141 inlet;
#X obj 93 221 max 0;
#X obj 93 241 min 1;
#X obj 113 171 route width;
#X obj 93 111 loadbang;
#X obj 93 201 f \$1;
#X obj 93 263 lop~ 80;
#X connect 0 0 4 0;
#X connect 0 0 6 0;
#X connect 1 0 4 1;
#X connect 1 0 6 1;
#X connect 4 0 5 0;
#X connect 5 0 8 0;
#X connect 5 0 9 0;
#X connect 6 0 7 0;
#X connect 7 0 8 1;
#X connect 7 0 9 1;
#X connect 8 0 2 0;
#X connect 9 0 3 0;
#X connect 10 0 13 0;
#X connect 11 0 12 0;
#X connect 12 0 16 0;
#X connect 13 0 15 0;
#X connect 14 0 15 0;
#X connect 15 0 11 0;
#X connect 16 0 7 1;
