#N canvas 27 34 822 762 10;
#X obj 100 273 inlet;
#X obj 100 295 route gui;
#X obj 275 410 outlet;
#X obj 100 102 vsl 200 150 0 100 0 0 \$0-from-threshold \$0-to-threshold
Threshold 5 8 1 9 -262144 -1 -1 0 0;
#N canvas 0 22 450 300 (subpatch) 0;
#X array \$0-plot 100 float 1;
#A 0 0 1 2 3 4 5 6 7 8 9 10 11 12 13 14 15 16 17 18 19 20 21 22 23
24 25 26 27 28 29 30 31 32 33 34 35 36 37 38 39 40 41 42 43 44 45 46
47 48 49 50 51 52 53 53.8297 54.2781 54.7266 55.175 55.6234 56.0719
56.5203 56.9687 57.4172 57.8656 58.314 58.7625 59.2109 59.6593 60.1077
60.5562 61.0046 61.453 61.9015 62.3499 62.7983 63.2468 63.6952 64.1436
64.592 65.0405 65.4889 65.9373 66.3858 66.8342 67.2826 67.7311 68.1795
68.6279 69.0764 69.5248 69.9732 70.4216 70.8701 71.3185 71.7669 72.2154
72.6638 73.1122 73.5607 74.0091;
#X coords 0 99 99 0 200 155 2 0 0;
#X restore 100 100 graph;
#X obj 311 149 vsl 15 100 0 100 0 0 empty \$0-input Input -3 -9 1 9
-262144 -33289 -33289 0 1;
#X obj 343 149 vsl 15 100 0 100 0 0 empty \$0-output Output -5 -9 1
9 -262144 -33289 -33289 0 1;
#X obj 307 116 nbx 3 14 1 100 0 0 \$0-from-ratio \$0-to-ratio Ratio
0 -8 1 9 -262144 -1 -1 1 256;
#X obj 344 116 tgl 14 0 \$0-from-gui-state \$0-to-gui-state On/Off
-5 -8 1 9 -262144 -1 -1 0 1;
#X obj 104 118 nbx 5 14 0 100 0 0 empty \$0-from-threshold empty 0
-8 1 9 -262144 -1 -1 0 256;
#X msg 288 350 gui-state \$1;
#X obj 275 270 r \$0-to-comp;
#X obj 94 628 line;
#N canvas 0 22 450 300 input-clip-display 0;
#X obj 87 192 pack f \$0;
#X msg 87 162 12;
#X msg 117 162 13;
#X obj 87 76 > 100;
#N canvas 0 22 335 369 switch 0;
#X msg 140 193 stop;
#X obj 113 163 t b b;
#X msg 160 269 1;
#X obj 86 133 sel 0;
#X msg 86 268 0;
#X obj 86 310 outlet;
#X obj 86 73 inlet;
#X obj 86 95 change -100;
#X obj 86 246 del 750;
#X connect 0 0 8 0;
#X connect 1 0 2 0;
#X connect 1 1 0 0;
#X connect 2 0 5 0;
#X connect 3 0 8 0;
#X connect 3 1 1 0;
#X connect 4 0 5 0;
#X connect 6 0 7 0;
#X connect 7 0 3 0;
#X connect 8 0 4 0;
#X restore 87 102 pd switch;
#X obj 87 132 sel 0 1;
#X obj 87 45 inlet;
#X msg 87 222 \; \$2-input color 0 \$1 12;
#X obj 207 59 loadbang;
#X msg 207 81 0;
#X connect 0 0 7 0;
#X connect 1 0 0 0;
#X connect 2 0 0 0;
#X connect 3 0 4 0;
#X connect 4 0 5 0;
#X connect 5 0 1 0;
#X connect 5 1 2 0;
#X connect 6 0 3 0;
#X connect 8 0 9 0;
#X connect 9 0 5 0;
#X restore 121 688 pd input-clip-display;
#N canvas 0 22 450 300 output-clip-display 0;
#X obj 87 192 pack f \$0;
#X msg 87 162 12;
#X msg 117 162 13;
#X obj 87 76 > 100;
#N canvas 0 22 335 369 switch 0;
#X msg 140 193 stop;
#X obj 113 163 t b b;
#X msg 160 269 1;
#X obj 86 133 sel 0;
#X msg 86 268 0;
#X obj 86 310 outlet;
#X obj 86 73 inlet;
#X obj 86 95 change -100;
#X obj 86 246 del 750;
#X connect 0 0 8 0;
#X connect 1 0 2 0;
#X connect 1 1 0 0;
#X connect 2 0 5 0;
#X connect 3 0 8 0;
#X connect 3 1 1 0;
#X connect 4 0 5 0;
#X connect 6 0 7 0;
#X connect 7 0 3 0;
#X connect 8 0 4 0;
#X restore 87 102 pd switch;
#X obj 87 132 sel 0 1;
#X obj 87 45 inlet;
#X msg 87 222 \; \$2-output color 0 \$1 12;
#X obj 207 59 loadbang;
#X msg 207 81 0;
#X connect 0 0 7 0;
#X connect 1 0 0 0;
#X connect 2 0 0 0;
#X connect 3 0 4 0;
#X connect 4 0 5 0;
#X connect 5 0 1 0;
#X connect 5 1 2 0;
#X connect 6 0 3 0;
#X connect 8 0 9 0;
#X connect 9 0 5 0;
#X restore 281 688 pd output-clip-display;
#X obj 254 628 line;
#X obj 94 648 t f f;
#X obj 94 708 s \$0-input;
#X obj 100 347 spigot 0;
#X obj 100 369 s \$0-from-comp;
#X obj 94 488 r \$0-from-comp;
#X obj 254 708 s \$0-output;
#X obj 254 648 t f f;
#X text 93 448 Input / Output Display;
#X text 93 458 -----------------------------------------------------
;
#X obj 598 637 nbx 5 14 0 100 0 0 empty empty GR_Amount 0 -8 1 9 -262144
-1 -1 0 256;
#X obj 94 608 pack f 100;
#X obj 254 608 pack f 100;
#X obj 275 381 spigot 0;
#X obj 288 325 t f f;
#X obj 508 152 r \$0-from-comp;
#X obj 508 238 s \$0-to-threshold;
#X obj 508 176 route threshold ratio;
#X obj 569 208 s \$0-to-ratio;
#X obj 512 282 r \$0-from-threshold;
#X obj 542 334 r \$0-from-ratio;
#X msg 542 356 ratio \$1;
#X msg 512 304 threshold \$1;
#X obj 512 384 s \$0-to-comp;
#X text 554 635 To do:;
#X text 135 668 Overrun detection;
#X text 306 669 Overrun detection;
#N canvas 201 87 503 662 redraw-plot 0;
#X obj 116 299 f 0;
#X msg 163 269 0;
#X obj 146 299 + 1;
#X msg 116 192 100;
#X obj 116 599 tabwrite \$0-plot;
#X obj 116 54 r \$0-from-threshold;
#X obj 116 137 spigot 0;
#X obj 116 329 t f f;
#X msg 116 359 graph-input \$1;
#X msg 237 440 threshold \$1;
#X obj 116 116 b;
#X obj 255 284 loadbang;
#X msg 171 437 switch 0;
#X obj 237 395 r \$0-from-threshold;
#X obj 359 395 r \$0-from-ratio;
#X msg 359 440 ratio \$1;
#X obj 116 215 t f b;
#X obj 116 539 route gui;
#X obj 116 569 route graph-output;
#X obj 116 237 until;
#X obj 126 84 r \$0-from-ratio;
#X obj 116 479 t a;
#X obj 116 159 m_speedlimit 100;
#X msg 374 418 3;
#X msg 252 417 65;
#X obj 255 306 t b b b;
#X obj 161 117 r \$0-from-gui-state;
#X obj 41 509 e_mcompressor;
#X connect 0 0 2 0;
#X connect 0 0 7 0;
#X connect 1 0 0 1;
#X connect 2 0 0 1;
#X connect 3 0 16 0;
#X connect 5 0 10 0;
#X connect 6 0 22 0;
#X connect 7 0 8 0;
#X connect 7 1 4 1;
#X connect 8 0 21 0;
#X connect 9 0 21 0;
#X connect 10 0 6 0;
#X connect 11 0 25 0;
#X connect 12 0 21 0;
#X connect 13 0 9 0;
#X connect 14 0 15 0;
#X connect 15 0 21 0;
#X connect 16 0 19 0;
#X connect 16 1 1 0;
#X connect 17 0 18 0;
#X connect 18 0 4 0;
#X connect 19 0 0 0;
#X connect 20 0 10 0;
#X connect 21 0 27 1;
#X connect 22 0 3 0;
#X connect 23 0 15 0;
#X connect 24 0 9 0;
#X connect 25 0 12 0;
#X connect 25 1 24 0;
#X connect 25 2 23 0;
#X connect 26 0 6 1;
#X connect 27 1 17 0;
#X restore 512 493 pd redraw-plot;
#X text 483 97 Input / Output Display;
#X text 483 107 -----------------------------------------------------
;
#X text 477 458 -----------------------------------------------------
;
#X text 477 448 Plot drawing;
#X obj 94 518 route input output gui-state;
#X obj 288 303 r \$0-from-gui-state;
#X obj 145 327 r \$0-from-gui-state;
#X obj 204 544 s \$0-to-gui-state;
#X text 729 730 RjDj 2012;
#X connect 0 0 1 0;
#X connect 1 0 18 0;
#X connect 10 0 28 0;
#X connect 11 0 28 0;
#X connect 12 0 16 0;
#X connect 15 0 22 0;
#X connect 16 0 17 0;
#X connect 16 1 13 0;
#X connect 18 0 19 0;
#X connect 20 0 47 0;
#X connect 22 0 21 0;
#X connect 22 1 14 0;
#X connect 26 0 12 0;
#X connect 27 0 15 0;
#X connect 28 0 2 0;
#X connect 29 0 10 0;
#X connect 29 1 28 1;
#X connect 30 0 32 0;
#X connect 32 0 31 0;
#X connect 32 1 33 0;
#X connect 34 0 37 0;
#X connect 35 0 36 0;
#X connect 36 0 38 0;
#X connect 37 0 38 0;
#X connect 47 0 26 0;
#X connect 47 1 27 0;
#X connect 47 2 50 0;
#X connect 48 0 29 0;
#X connect 49 0 18 1;
#X coords 0 -1 1 1 270 155 2 100 100;
