#N canvas 263 227 608 520 10;
#X obj 42 290 -~ 0.5;
#X obj 190 290 -~ 0.5;
#X obj 96 340 -~;
#X obj 182 480 outlet~;
#X obj 42 91 phasor~ 0;
#X text 93 55 frequency;
#X obj 190 236 wrap~;
#N canvas 0 22 540 420 4*$v1*(1-$v1) 0;
#X obj 182 177 *~ 4;
#X obj 132 177 sig~ 1;
#X obj 132 200 -~;
#X obj 132 228 *~;
#X obj 182 76 inlet~;
#X obj 132 253 outlet~;
#X connect 0 0 3 1;
#X connect 1 0 2 0;
#X connect 2 0 3 0;
#X connect 3 0 5 0;
#X connect 4 0 2 1;
#X connect 4 0 0 0;
#X restore 190 262 pd 4*$v1*(1-$v1);
#N canvas 0 22 540 420 4*$v1*(1-$v1) 0;
#X obj 182 177 *~ 4;
#X obj 132 177 sig~ 1;
#X obj 132 200 -~;
#X obj 132 228 *~;
#X obj 182 76 inlet~;
#X obj 132 253 outlet~;
#X connect 0 0 3 1;
#X connect 1 0 2 0;
#X connect 2 0 3 0;
#X connect 3 0 5 0;
#X connect 4 0 2 1;
#X connect 4 0 0 0;
#X restore 42 261 pd 4*$v1*(1-$v1);
#X obj 42 54 inlet~;
#X obj 392 66 inlet;
#X obj 256 372 line~;
#X obj 256 350 pack 0 10;
#N canvas 0 22 540 420 4*$f1*(1-$f1) 0;
#X obj 185 177 * 4;
#X obj 137 72 inlet;
#X msg 137 171 1 \$1;
#X obj 137 200 -;
#X obj 137 228 *;
#X obj 137 107 t a a;
#X obj 137 253 outlet;
#X connect 0 0 4 1;
#X connect 1 0 5 0;
#X connect 2 0 3 0;
#X connect 3 0 4 0;
#X connect 4 0 6 0;
#X connect 5 0 2 0;
#X connect 5 1 0 0;
#X restore 392 290 pd 4*$f1*(1-$f1);
#X obj 205 151 line~;
#X obj 205 129 pack 0 10;
#X obj 190 177 +~;
#X obj 205 77 loadbang;
#X msg 205 98 0.5;
#X obj 182 414 /~;
#X obj 256 297 loadbang;
#X msg 256 318 1;
#X obj 462 19 inlet;
#X text 320 481 originially part of s_osc;
#N canvas 172 83 586 377 LICENSE-GPL 0;
#X text 57 88 This program is free software: you can redistribute it
and/or modify it under the terms of the GNU General Public License
as published by the Free Software Foundation \, either version 3 of
the License \, or (at your option) any later version.;
#X text 58 168 This program is distributed in the hope that it will
be useful \, but WITHOUT ANY WARRANTY \; without even the implied warranty
of MERCHANTABILITY or FITNESS FOR A PARTICULAR PURPOSE. See the GNU
General Public License for more details.;
#X text 57 261 You should have received a copy of the GNU General Public
License along with this program. If not \, see <http://www.gnu.org/licenses/>.
;
#X text 61 54 Copyright (C) 2009 \, Reality Jockey Ltd.;
#X text 60 325 See the file LICENSE.txt for the full license text.
;
#X restore 477 434 pd LICENSE-GPL;
#X obj 392 94 m_scale -1 1 0 1;
#X text 503 21 phase;
#X text 451 64 tri-saw slope (-1 - 1);
#X obj 392 122 clip 0.01 0.99;
#X text 509 94 tri: 0;
#X connect 0 0 2 0;
#X connect 1 0 2 1;
#X connect 2 0 19 0;
#X connect 4 0 8 0;
#X connect 4 0 16 0;
#X connect 6 0 7 0;
#X connect 7 0 1 0;
#X connect 8 0 0 0;
#X connect 9 0 4 0;
#X connect 10 0 25 0;
#X connect 11 0 19 1;
#X connect 12 0 11 0;
#X connect 13 0 12 0;
#X connect 14 0 16 1;
#X connect 15 0 14 0;
#X connect 16 0 6 0;
#X connect 17 0 18 0;
#X connect 18 0 15 0;
#X connect 19 0 3 0;
#X connect 20 0 21 0;
#X connect 21 0 12 0;
#X connect 22 0 4 1;
#X connect 25 0 28 0;
#X connect 28 0 13 0;
#X connect 28 0 15 0;
