#N canvas 240 143 845 532 10;
#X obj 794 191 mtof;
#X floatatom 931 163 5 0 0 2 BW - -;
#X floatatom 794 159 5 0 0 2 freq - -;
#N canvas 0 22 450 300 show 0;
#X obj 41 39 inlet;
#X obj 186 36 inlet;
#X obj 41 124 outlet;
#X msg 186 76 set;
#X obj 41 59 list prepend set;
#X obj 41 83 list trim;
#X connect 0 0 4 0;
#X connect 1 0 3 0;
#X connect 3 0 2 0;
#X connect 4 0 5 0;
#X connect 5 0 2 0;
#X restore 794 261 pd show;
#X msg 794 294;
#X obj 580 154 noise~;
#X obj 479 313 env~;
#X obj 581 200 *~ 0.3;
#X obj 541 269 e_beequad;
#X obj 542 404 soundoutput;
#X obj 542 371 c_xfade;
#X msg 852 261 reset;
#X obj 626 271 biquad~;
#X obj 479 336 - 100;
#X obj 480 360 vu 15 80 empty empty -1 -8 0 10 -66577 -1 0 0;
#X obj 664 312 env~;
#X obj 664 335 - 100;
#X obj 665 359 vu 15 80 empty empty -1 -8 0 10 -66577 -1 0 0;
#X obj 591 350 hsl 32 15 0 1 0 0 empty empty empty -2 -8 0 10 -262144
-1 -1 0 1;
#X msg 837 192 bang;
#X obj 794 229 u_bandpass2 1000 200;
#N canvas 377 58 582 570 REFERENCE 0;
#X text 24 31 Name: [u_bandpass2];
#X text 24 61 Summary: Compute biquad coefficients for a bandpass filter
with constant 0 dB peak gain and BW inlet. Designed to be used with
[biquad~] or [e_beequad].;
#X text 24 125 Argument 0: Frequency;
#X text 24 145 Argument 1: Bandwidth;
#X text 24 168 Inlet 0: freq;
#X text 24 188 Inlet 1: BandWidth;
#X text 24 216 Outlet 0: Biquad Coefficients;
#X text 24 254 Description: Compute biquad coefficients for a bandpass
filter with constant 0 dB peak gain and BW inlet. Designed to be used
with [biquad~] or [e_beequad]. Both inlets are hot and trigger new
coefficients. Both inlets are hot and trigger new coefficients. BW=100
per octave.;
#X text 24 374 See also: [biquad~] [e_beequad];
#X text 24 434 Tags: Utilities \, Filter;
#X coords 0 -1 1 1 450 450 1 10 10;
#X restore 15 58 pd REFERENCE;
#X obj 15 28 cnv 15 450 25 empty empty empty 20 12 0 14 -261234 -66577
0;
#X text 478 61 Example:;
#X obj 18 30 u_bandpass2;
#X text 126 25 - Compute biquad coefficients for a bandpass filter
with constant 0 dB peak gain and BW inlet.;
#X text 488 505 RjDj Library (https://github.com/rjdj/rjlib) - 2011
;
#X connect 0 0 20 0;
#X connect 1 0 20 1;
#X connect 2 0 0 0;
#X connect 3 0 4 0;
#X connect 5 0 7 0;
#X connect 6 0 13 0;
#X connect 7 0 8 0;
#X connect 7 0 12 0;
#X connect 8 0 6 0;
#X connect 8 0 10 0;
#X connect 10 0 9 0;
#X connect 10 0 9 1;
#X connect 11 0 3 1;
#X connect 12 0 15 0;
#X connect 12 0 10 1;
#X connect 13 0 14 0;
#X connect 15 0 16 0;
#X connect 16 0 17 0;
#X connect 18 0 10 2;
#X connect 19 0 20 0;
#X connect 20 0 3 0;
#X connect 20 0 8 1;
#X connect 20 0 12 0;
