#N canvas 90 22 959 771 10;
#X obj 643 290 u_channelstrip MYSTRIP;
#X obj 757 439 catch~ \$0-AUX2;
#X obj 717 522 throw~ \$0-AUX1;
#X obj 756 415 throw~ \$0-AUX2;
#X msg 809 258 help;
#X obj 989 19 r \$0-setstrip;
#X msg 862 255 save;
#X obj 862 287 t a b;
#X obj 794 316 u_cocollect;
#X msg 794 338 aux2name a1 \, aux1name a2 \, aux2 0.43038 \, aux1 0.632911
\, pan 0.464567 \, level 71.0127 \, mute 0 \,;
#X obj 794 378 s \$0-setstrip;
#X obj 794 210 r \$0-strip;
#X obj 479 469 soundoutput;
#X obj 642 181 s_osc myosc square;
#X obj 642 158 mtof;
#X obj 642 137 m_majorscale 50;
#X obj 642 106 random 10;
#X obj 642 79 metro 250;
#X obj 642 53 tgl 15 0 empty empty empty 17 7 0 10 -262144 -1 -1 0
1;
#X obj 718 551 catch~ \$0-AUX1;
#X obj 478 421 catch~ \$0-LEFT;
#X obj 583 443 catch~ \$0-RIGHT;
#X obj 491 354 throw~ \$0-LEFT;
#X obj 598 354 throw~ \$0-RIGHT;
#X obj 827 567 env~;
#X floatatom 827 587 5 0 0 0 - - -;
#X obj 866 455 env~;
#X floatatom 866 475 5 0 0 0 - - -;
#X obj 862 234 bng 15 250 50 0 empty empty empty 17 7 1 10 -204786
-1 -1;
#N canvas 0 22 806 672 dubdelay 0;
#X obj 137 105 e_dubdel somedel;
#X obj 138 180 throw~ \$0-LEFT;
#X obj 191 146 throw~ \$0-RIGHT;
#X obj 136 45 inlet~;
#X msg 246 69 dry 0.2 \, bq 2 \, basedur 500 \, bpitch 83 \, feedback
0.99 \, dell 2 \, delr 3 \,;
#X obj 246 50 loadbang;
#X connect 0 0 1 0;
#X connect 0 1 2 0;
#X connect 3 0 0 0;
#X connect 3 0 0 1;
#X connect 4 0 0 2;
#X connect 5 0 4 0;
#X restore 717 577 pd dubdelay;
#N canvas 0 22 457 248 reverb 0;
#X obj 78 141 throw~ \$0-LEFT;
#X obj 148 103 throw~ \$0-RIGHT;
#X obj 77 80 e_platereverb somerev;
#X obj 78 38 inlet~;
#X connect 2 0 0 0;
#X connect 2 1 1 0;
#X connect 3 0 2 0;
#X connect 3 0 2 1;
#X restore 757 463 pd reverb;
#X text 918 447 a reverb effect on aux2;
#X text 873 550 a pingpong delay on aux1;
#X obj 1141 434 catch~ a1;
#X obj 1140 461 env~;
#X floatatom 1140 486 5 0 0 0 - - -;
#X obj 1224 461 env~;
#X floatatom 1224 486 5 0 0 0 - - -;
#X obj 1225 434 catch~ a2;
#X text 1136 175 panning;
#X text 1135 74 aux1 level (0-1);
#X text 1135 96 aux1 throw~ target (optional);
#X text 1135 123 aux2 level (0-1);
#X text 1135 145 aux2 throw~ target (optional);
#X text 1134 49 level fader (dB \, 0...100);
#X text 1136 203 mute;
#X obj 885 315 loadbang;
#X text 1109 411 these are targets for renamed throws;
#X obj 989 71 g_nhsl aux1 0 1;
#X obj 989 46 g_nhsl level 0 110;
#X obj 989 208 g_tgl mute;
#X obj 989 239 s \$0-strip;
#X obj 989 121 g_nhsl aux2 0 1;
#X obj 989 96 g_symbol aux1name;
#X obj 989 146 g_symbol aux2name;
#X obj 989 171 g_hsl pan 0 1;
#N canvas 377 58 582 570 REFERENCE 0;
#X text 24 374 See also:;
#X text 24 31 Name: [u_channelstrip];
#X text 24 51 Summary: Simple mixing strip with two postfader aux.
;
#X text 24 101 Argument 0: name of the particular channelstrip.;
#X text 24 144 Inlet 0: Audio Input;
#X text 24 164 Inlet 1: Control data for the channelstrip;
#X text 24 194 Outlet 0: Output audio signal left channel;
#X text 24 214 Outlet 1: Output audio signal right channel;
#X text 24 274 Outlet 4: Save control data;
#X text 24 324 Description: Simple mixing strip with two postfader
aux;
#X text 24 234 Outlet 2: Post-Fader Aux1;
#X text 24 254 Outlet 3: Post-Fader Aux2;
#X text 24 434 Tags: Audio \, Utilities \, Mixer;
#X coords 0 -1 1 1 450 450 1 10 10;
#X restore 15 58 pd REFERENCE;
#X obj 15 28 cnv 15 450 20 empty empty empty 20 12 0 14 -261234 -66577
0;
#X text 478 61 Example:;
#X text 298 636 RjDj Library (https://github.com/rjdj/rjlib) - 2011
;
#X obj 18 30 u_channelstrip;
#X text 139 31 - simple mixing strip with two postfader aux;
#X text 1226 25;
#X connect 0 0 22 0;
#X connect 0 1 23 0;
#X connect 0 2 2 0;
#X connect 0 3 3 0;
#X connect 0 4 8 0;
#X connect 1 0 26 0;
#X connect 1 0 30 0;
#X connect 4 0 0 1;
#X connect 5 0 49 0;
#X connect 6 0 7 0;
#X connect 7 0 0 1;
#X connect 7 1 8 1;
#X connect 8 0 9 0;
#X connect 9 0 10 0;
#X connect 11 0 0 1;
#X connect 13 0 0 0;
#X connect 14 0 13 0;
#X connect 15 0 14 0;
#X connect 16 0 15 0;
#X connect 17 0 16 0;
#X connect 18 0 17 0;
#X connect 19 0 24 0;
#X connect 19 0 29 0;
#X connect 20 0 12 0;
#X connect 21 0 12 1;
#X connect 24 0 25 0;
#X connect 26 0 27 0;
#X connect 28 0 6 0;
#X connect 33 0 34 0;
#X connect 34 0 35 0;
#X connect 36 0 37 0;
#X connect 38 0 36 0;
#X connect 46 0 9 0;
#X connect 48 0 53 0;
#X connect 49 0 48 0;
#X connect 50 0 51 0;
#X connect 52 0 54 0;
#X connect 53 0 52 0;
#X connect 54 0 55 0;
#X connect 55 0 50 0;
