#N canvas 302 144 1073 576 10;
#X obj 266 338 mod 2;
#X obj 266 368 != 0;
#X obj 314 339 mod 3;
#X obj 314 368 != 0;
#X obj 266 402 &&;
#X obj 266 311 t a a;
#N canvas 0 22 450 300 show 0;
#X obj 129 107 list prepend set;
#X obj 129 129 list trim;
#X obj 129 79 inlet;
#X obj 129 154 outlet;
#X connect 0 0 1 0;
#X connect 1 0 3 0;
#X connect 2 0 0 0;
#X restore 110 433 pd show;
#X msg 110 459;
#X msg 109 75 0 1 2 3 4 5;
#N canvas 0 22 450 300 show 0;
#X obj 129 107 list prepend set;
#X obj 129 129 list trim;
#X obj 129 79 inlet;
#X obj 129 154 outlet;
#X connect 0 0 1 0;
#X connect 1 0 3 0;
#X connect 2 0 0 0;
#X restore 109 168 pd show;
#X msg 109 194;
#X obj 206 128 >= 3;
#X text 256 128 remove values smaller than 3 from list;
#X obj 199 74 t b a;
#X floatatom 199 55 5 0 0 0 - - -;
#X text 239 74 "bang" to [u_listfilter] will resend the last list;
#X text 110 247 Calculate some small primes:;
#X msg 110 272 2 3 4 5 6 7 8 9 10 11 12 13 14 15 16 17 18 19 20 21
22 23 24;
#X msg 122 411 bang;
#X msg 118 147 bang;
#X obj 109 127 u_listfilter;
#X obj 110 356 u_listfilter;
#N canvas 141 262 582 570 REFERENCE 1;
#X text 24 368 See also:;
#X text 24 31 Name: u_listfilter;
#X text 23 262 Description: returns a sequence consisting of those
items from the sequence for which the user-defined operation cross-connected
to the rightmost in- and outlet is true. Everything that is not 0 is
considered a TRUE value. Internally [select 0] is used.;
#X text 24 183 Outlet 0: message containing filtered list.;
#X text 24 143 Inlet 0: message containing a list/sequence.;
#X text 24 203 Outlet 1: cross-connected user-defined operation.;
#X text 24 163 Inlet 1: cross-connected user-defined operation.;
#X text 24 79 Summary: trim list based on user-defined operation.;
#X text 24 434 Tags: utility \, list;
#X coords 0 -1 1 1 450 450 1 10 10;
#X restore -459 58 pd REFERENCE;
#X obj -455 28 cnv 15 450 20 empty empty empty 20 12 0 14 -261234 -66577
0;
#X text 8 61 Example:;
#X text 266 510 RjDj Library (https://github.com/rjdj/rjlib) - 2011
;
#X obj -452 30 u_listfilter;
#X text -331 31 - trim list based on user-defined operation.;
#X connect 0 0 1 0;
#X connect 1 0 4 0;
#X connect 2 0 3 0;
#X connect 3 0 4 1;
#X connect 4 0 21 1;
#X connect 5 0 0 0;
#X connect 5 1 2 0;
#X connect 6 0 7 0;
#X connect 8 0 20 0;
#X connect 9 0 10 0;
#X connect 11 0 20 1;
#X connect 13 0 20 0;
#X connect 13 1 11 1;
#X connect 14 0 13 0;
#X connect 17 0 21 0;
#X connect 18 0 6 0;
#X connect 19 0 9 0;
#X connect 20 0 9 0;
#X connect 20 1 11 0;
#X connect 21 0 6 0;
#X connect 21 1 5 0;
