#N canvas 329 142 943 535 10;
#X obj 138 201 u_listdrip;
#X msg 138 120 1 2 3 4 5;
#X obj 138 280 print LIST;
#X obj 205 226 bng 15 250 50 0 empty empty end_of_list 17 7 1 10 -262144
-1 -1;
#X obj 102 314 u_cocollect;
#X msg 102 337 1 \, 2 \, 3 \, 4 \, 5 \,;
#X obj 138 144 t a b;
#X msg 196 144 bang;
#X msg 138 96 a b c d;
#N canvas 203 76 582 570 REFERENCE 0;
#X text 24 334 See also: [list] [list-drip];
#X text 24 434 Tags: utility \, list;
#X text 24 31 Name: u_listdrip;
#X text 22 242 Description: serialize a list immediatly (same as [list-drip]
from the [list]-abs collection);
#X text 24 51 Summary: serialize a list immediatly.;
#X text 23 206 Outlet 1: sends "bang" when list reaches to its end.
;
#X text 24 124 Inlet 0: message object containing list.;
#X text 24 164 Outlet 0:;
#X coords 0 -1 1 1 450 450 1 10 10;
#X restore -445 55 pd REFERENCE;
#X obj -445 28 cnv 15 450 20 empty empty empty 20 12 0 14 -261234 -66577
0;
#X text 18 61 Example:;
#X text 110 489 RjDj Library (https://github.com/rjdj/rjlib) - 2011
;
#X obj -442 30 u_listdrip;
#X text -321 31 - serialize a list immediatly;
#X connect 0 0 2 0;
#X connect 0 0 4 0;
#X connect 0 1 3 0;
#X connect 1 0 6 0;
#X connect 4 0 5 0;
#X connect 6 0 0 0;
#X connect 6 1 4 1;
#X connect 7 0 0 0;
#X connect 8 0 6 0;
