#N canvas 4 22 1276 756 10;
#N canvas 435 477 293 176 show 0;
#X obj 77 36 inlet;
#X obj 77 109 outlet;
#X obj 77 60 list prepend set;
#X obj 77 85 list trim;
#X connect 0 0 2 0;
#X connect 2 0 3 0;
#X connect 3 0 1 0;
#X restore 506 271 pd show;
#X msg 506 291;
#X msg 506 134 bang;
#X msg 551 134 seed 123;
#X floatatom 553 183 5 0 0 2 range - -;
#X floatatom 601 183 5 0 0 2 length - -;
#N canvas 435 477 293 176 show 0;
#X obj 77 36 inlet;
#X obj 77 109 outlet;
#X obj 77 60 list prepend set;
#X obj 77 85 list trim;
#X connect 0 0 2 0;
#X connect 2 0 3 0;
#X connect 3 0 1 0;
#X restore 690 271 pd show;
#X msg 690 291;
#X msg 690 134 bang;
#X msg 735 134 seed 123;
#X floatatom 751 183 5 0 0 2 range - -;
#X floatatom 813 183 5 0 0 2 length - -;
#X msg 515 247 bang;
#X msg 698 248 bang;
#X obj 690 205 u_listrandom 10 20;
#X obj 506 205 u_listrandom 5;
#N canvas 47 22 582 570 REFERENCE 0;
#X text 24 31 Name: [u_listrandom];
#X text 24 51 Summary: make list of random numbers.;
#X text 24 91 Argument 0: range;
#X text 24 111 Argument 0: length;
#X text 24 134 Inlet 0: bang/seed;
#X text 24 154 Inlet 1: range;
#X text 24 174 Inlet 1: length;
#X text 24 254 Description: generates a list of pseudorandom integers
from 0 to N-1 \, where N is the first creation argument. The second
creation argument specifies the length of the list (minimum and default
length is 1). A seed-message is used to seed the random number generator.
;
#X text 24 374 See also: [random];
#X text 24 434 Tags: random numbers;
#X text 24 214;
#X text 24 204 Outlet 0: outputs a list of random numbers;
#X coords 0 -1 1 1 450 450 1 10 10;
#X restore 15 58 pd REFERENCE;
#X obj 15 28 cnv 15 450 20 empty empty empty 20 12 0 14 -261234 -66577
0;
#X text 478 61 Example:;
#X text 477 538 RjDj Library (https://github.com/rjdj/rjlib) - 2011
;
#X obj 18 30 u_listrandom;
#X text 139 31 - make list of random numbers;
#X connect 0 0 1 0;
#X connect 2 0 15 0;
#X connect 3 0 15 0;
#X connect 4 0 15 1;
#X connect 5 0 15 2;
#X connect 6 0 7 0;
#X connect 8 0 14 0;
#X connect 9 0 14 0;
#X connect 10 0 14 1;
#X connect 11 0 14 2;
#X connect 12 0 0 0;
#X connect 13 0 6 0;
#X connect 14 0 6 0;
#X connect 15 0 0 0;
