#N canvas 586 88 902 517 10;
#X obj 503 194 pack 0 0;
#X obj 503 94 tgl 15 0 empty empty empty 17 7 0 10 -262144 -1 -1 0
1;
#X obj 503 410 soundoutput;
#X obj 725 169 hsl 128 15 0 1 0 0 empty empty tone_(0...1) 20 7 1 10
-262144 -1 -1 0 1;
#X msg 722 190 tone \$1;
#X obj 503 159 makenote 80 1000;
#X floatatom 751 228 5 0 0 0 - - -;
#X msg 751 249 vib-freq \$1;
#X obj 503 375 *~ 0.25;
#N canvas 7 371 582 570 REFERENCE 0;
#X text 24 434 Tags: Audio;
#X text 24 315 Description: creates a polyphonic version of midi-controlled
instruments. The creation arguments set the max number of polphony
and can switch voice stealing on.;
#X text 24 81 Argument 0: <integer> - Max Polyphony.;
#X text 24 121 Argument 2: <symbol> - Instrument name.;
#X text 24 101 Argument 1: <bool> - Voice stealing (0/1).;
#X text 24 141 Argument 3: <symbol> - Unique Name.;
#X text 24 208 Inlet 0: <float float> - Midi note number and velocity.
;
#X text 24 228 Inlet 1: <various> - Control inlet \, messages depend
on the instrument used.;
#X text 24 161 Argument 4..7: <various> - Up to four more arguments
can be passed through to the object in use.;
#X text 24 397 See also: [u_makepolymono] [u_robinpoly] [u_robinpolymono]
;
#X text 24 274 Outlet 0: Main audio signal output.;
#X text 24 31 Name: [u_makepolymono];
#X text 24 51 Summary: make mono midi-like instruments polyphonic.
;
#X coords 0 -1 1 1 450 450 1 10 10;
#X restore 15 58 pd REFERENCE;
#X obj 15 28 cnv 15 450 20 empty empty empty 20 12 0 14 -261234 -66577
0;
#X text 478 61 Example:;
#N canvas 0 22 236 241 PLAY 0;
#X msg 54 119 40 \, 44 \, 56 \, 60;
#X msg 87 141 40 \, 46 \, 58 \, 62;
#X obj 54 69 random 2;
#X obj 54 96 select 0 1;
#X obj 54 47 metro 500;
#X obj 54 23 inlet;
#X obj 54 177 outlet;
#X connect 0 0 6 0;
#X connect 1 0 6 0;
#X connect 2 0 3 0;
#X connect 3 0 0 0;
#X connect 3 1 1 0;
#X connect 4 0 2 0;
#X connect 5 0 4 0;
#X restore 503 123 pd PLAY;
#X text 572 485 RjDj Library (https://github.com/rjdj/rjlib) - 2012
;
#X text 524 316 Note: If an instrument doesn't have the right number
of inlets/outlets \, it can still be used \, but you may get some some
errors in the console.;
#X text 139 31 - make midi-like instruments polyphonic (mono version)
;
#X obj 503 286 u_makepolymono 8 1 s_rhodey \$0-MYINST;
#X obj 18 30 u_makepolymono;
#X connect 0 0 16 0;
#X connect 1 0 12 0;
#X connect 3 0 4 0;
#X connect 4 0 16 1;
#X connect 5 0 0 0;
#X connect 5 1 0 1;
#X connect 6 0 7 0;
#X connect 7 0 16 1;
#X connect 8 0 2 0;
#X connect 8 0 2 1;
#X connect 12 0 5 0;
#X connect 16 0 8 0;
