#N canvas 104 162 877 527 10;
#X declare -path ./;
#X floatatom 140 373 8 0 0 1 duration_in_samples - -;
#X floatatom 113 393 8 0 0 1 duration_in_ms - -;
#X msg 86 106 info;
#X msg 96 136 open;
#X msg 126 196 sr 44100 \, info;
#X msg 126 226 sr 22050 \, info;
#X symbolatom 86 413 12 0 0 1 table_name - -;
#X msg 116 166 open file_not_found.wav;
#X obj 86 330 unpack s f f f;
#X floatatom 167 353 6 0 0 1 samplerate - -;
#N canvas 120 378 934 511 REFERENCE 0;
#X text 23 147 Inlet 0:;
#X text 23 342 You can add paths to search for soundfiles using "declare".
;
#X text 22 361 Just add;
#X text 204 361 to your _main.pd patch.;
#X text 24 31 Name: u_samplebank2;
#X text 22 431 Tags: Audio \, Playback;
#X text 23 396 See also: [u_samplebank] [u_multisamplebank] [s_playtable]
;
#X text 23 57 Summary: Utility patch to load sample stereo files into
Pd tables.;
#X text 23 97 Argument 0: <symbol> Table name - Must be unique.;
#X text 23 117 Argument 1: <path> Soundfile directory (optional).;
#X text 88 178 <message> "info" - output list containing: table name
\, duration in ms \, duration in samples \, samplerate.;
#X text 88 147 <message> "open" - load a sample with opendialog.;
#X text 88 162 <message> "open filename.wav" - load a sample by path.
;
#X text 88 205 <message> "sr SAMPLERATE \, info" - change the samplerate
;
#X text 23 258 Description: Utility patch to load sample stereo files
into Pd tables. Also calculates duration in milliseconds. Available
in mono as [u_samplebank] as well. Left channel will be in table "ARGUMENT-1"
\, right channel is in table "ARGUMENT-2". Play back the sample via
[s_playtable].;
#X text 24 230 Outlet 0: output list if "info" message is sent to Inlet
0;
#X coords 0 -1 1 1 450 450 1 0 0;
#X restore -415 52 pd REFERENCE;
#X obj -415 28 cnv 15 450 20 empty empty empty 20 12 0 14 -261234 -66577
0;
#X obj -412 30 u_samplebank2;
#X text 72 56 Example:;
#X text 120 496 RjDj Library (https://github.com/rjdj/rjlib) - 2011
;
#X text -301 31 - loads stereo audio files into Pd tables.;
#X obj 86 290 u_samplebank2 \$0-sample ../samples/file_not_found.wav
;
#X obj -325 414 declare -path ./;
#X connect 2 0 16 0;
#X connect 3 0 16 0;
#X connect 4 0 16 0;
#X connect 5 0 16 0;
#X connect 7 0 16 0;
#X connect 8 0 6 0;
#X connect 8 1 1 0;
#X connect 8 2 0 0;
#X connect 8 3 9 0;
#X connect 16 0 8 0;
